<svg width="66" height="66" viewBox="0 0 66 66" fill="none" xmlns="http://www.w3.org/2000/svg">
<rect width="66" height="66" rx="12" fill="#0C0D1A"/>
<g clip-path="url(#clip0_107_6228)">
<path d="M52.644 21.4185C52.644 21.6747 52.541 21.9203 52.3576 22.1015C52.1743 22.2826 51.9256 22.3843 51.6663 22.3843C51.4069 22.3843 51.1582 22.2826 50.9749 22.1015C50.7915 21.9203 50.6885 21.6747 50.6885 21.4185C50.6885 21.1623 50.7915 20.9167 50.9749 20.7355C51.1582 20.5544 51.4069 20.4526 51.6663 20.4526C51.9256 20.4526 52.1743 20.5544 52.3576 20.7355C52.541 20.9167 52.644 21.1623 52.644 21.4185Z" fill="white"/>
<path d="M20.7051 37.8667C20.7051 39.361 21.3063 40.7945 22.376 41.8511C23.4456 42.9077 24.8965 43.5014 26.4092 43.5015C29.5987 43.5015 32.1133 41.0729 32.1133 37.9995H35.3721V42.8286C35.3721 43.0421 35.4585 43.247 35.6113 43.3979C35.7641 43.5488 35.9715 43.6333 36.1875 43.6333C36.4034 43.6332 36.611 43.5488 36.7637 43.3979C36.9163 43.247 37.002 43.042 37.002 42.8286V37.1138C36.41 37.2331 35.7985 37.2214 35.2119 37.0786C34.6254 36.9358 34.0782 36.6659 33.6104 36.2886C33.1424 35.9111 32.7648 35.4352 32.5059 34.896C32.2469 34.3568 32.1132 33.7672 32.1133 33.1704V25.1216C32.1133 24.0542 32.5426 23.0306 33.3066 22.2759C34.0707 21.5213 35.1071 21.0972 36.1875 21.0972C37.2677 21.0973 38.3035 21.5214 39.0674 22.2759C39.8314 23.0306 40.2607 24.0542 40.2607 25.1216V42.8286C40.2607 43.0421 40.3472 43.247 40.5 43.3979C40.6528 43.5488 40.8601 43.6333 41.0762 43.6333C41.2922 43.6332 41.4996 43.5488 41.6523 43.3979C41.805 43.247 41.8906 43.042 41.8906 42.8286V25.1216C41.8906 24.0543 42.32 23.0306 43.084 22.2759C43.848 21.5212 44.8843 21.0972 45.9648 21.0972C47.0453 21.0972 48.0817 21.5212 48.8457 22.2759C49.6097 23.0306 50.0391 24.0543 50.0391 25.1216V42.8286C50.0391 43.576 49.8284 44.3091 49.4307 44.9448C49.033 45.5805 48.4637 46.094 47.7871 46.4282C47.1104 46.7625 46.3522 46.9045 45.5986 46.8374C44.8452 46.7702 44.1257 46.4967 43.5205 46.0483C42.816 46.5719 41.9578 46.8543 41.0762 46.853C40.1945 46.8543 39.3364 46.5719 38.6318 46.0483C38.1415 46.4116 37.574 46.6611 36.9727 46.7778C36.3714 46.8946 35.7511 46.8759 35.1582 46.7231C34.5653 46.5703 34.0147 46.287 33.5479 45.895C33.0809 45.5029 32.7091 45.0111 32.4609 44.4575C30.86 45.8722 28.7304 46.7202 26.4092 46.7202C21.4591 46.7202 17.4463 42.7565 17.4463 37.8667V21.0972H20.7051V37.8667ZM45.9648 24.3169C45.7488 24.3169 45.5415 24.4014 45.3887 24.5522C45.2359 24.7032 45.1504 24.9081 45.1504 25.1216V42.8286C45.1504 43.2729 45.5151 43.6333 45.9648 43.6333C46.4146 43.6333 46.7793 43.2729 46.7793 42.8286V25.1216C46.7793 24.9081 46.6938 24.7032 46.541 24.5522C46.3882 24.4014 46.1809 24.3169 45.9648 24.3169ZM26.4111 21.0972C27.4916 21.0972 28.528 21.5212 29.292 22.2759C30.056 23.0306 30.4854 24.0543 30.4854 25.1216V37.9995C30.4854 39.0668 30.0559 40.0905 29.292 40.8452C28.528 41.5999 27.4916 42.0239 26.4111 42.0239C25.3306 42.0239 24.2943 41.5999 23.5303 40.8452C22.7662 40.0905 22.3369 39.0668 22.3369 37.9995V25.1216C22.3369 24.0542 22.7662 23.0306 23.5303 22.2759C24.2943 21.5212 25.3306 21.0972 26.4111 21.0972ZM26.4111 24.3169C26.1951 24.3169 25.9878 24.4014 25.835 24.5522C25.6822 24.7032 25.5957 24.9081 25.5957 25.1216V37.9995C25.5957 38.4438 25.9614 38.8042 26.4111 38.8042C26.8608 38.8041 27.2256 38.4438 27.2256 37.9995V25.1216C27.2256 24.9081 27.1401 24.7032 26.9873 24.5522C26.8345 24.4013 26.6272 24.3169 26.4111 24.3169ZM36.1875 24.3169C35.9715 24.3169 35.7641 24.4015 35.6113 24.5522C35.4585 24.7032 35.3721 24.9081 35.3721 25.1216V33.1704C35.3721 33.3839 35.4585 33.5888 35.6113 33.7397C35.7641 33.8905 35.9716 33.9751 36.1875 33.9751C36.4034 33.975 36.611 33.8906 36.7637 33.7397C36.9164 33.5888 37.0019 33.3838 37.002 33.1704V25.1216C37.002 24.9082 36.9164 24.7032 36.7637 24.5522C36.611 24.4014 36.4034 24.317 36.1875 24.3169Z" fill="white"/>
</g>
<defs>
<clipPath id="clip0_107_6228">
<rect width="35.2" height="26.4" fill="white" transform="translate(17.4463 20.4526)"/>
</clipPath>
</defs>
</svg>
