<svg width="147" height="32" viewBox="0 0 147 32" fill="none" xmlns="http://www.w3.org/2000/svg">
<g clip-path="url(#clip0_1_15833)">
<path d="M42.4129 16.6416C42.4421 16.095 42.4421 15.5473 42.4129 15.0006H10.3525C10.3458 15.1368 10.3398 15.2738 10.3365 15.4109H3.62009L3.61671 15.616H0V16.0263H3.61586L3.62093 16.2314H10.3365C10.3398 16.3692 10.3449 16.5054 10.3534 16.6416H19.5578C19.5228 16.3695 19.5053 16.0954 19.5054 15.8211H33.0226C33.0226 16.0993 33.0057 16.3733 32.9702 16.6416H42.4129ZM42.3461 14.1801H32.8106C32.7364 13.9009 32.6433 13.6268 32.5318 13.3596H19.9988C19.8881 13.6254 19.7943 13.8987 19.72 14.1801H10.4184C10.4336 14.0431 10.4505 13.9061 10.4691 13.7698H3.75272L3.78145 13.5696H0V13.1594H3.84819L3.88705 12.9493H10.6034C10.6288 12.8123 10.6575 12.6753 10.6879 12.5391H42.0783C42.1966 13.0765 42.287 13.6238 42.3461 14.1801ZM41.873 11.7186H31.5408C31.2971 11.4232 31.0278 11.1487 30.7357 10.8981H21.794C21.5026 11.1491 21.2322 11.4232 20.9889 11.7186H10.8932C10.9312 11.5815 10.9718 11.4445 11.014 11.3083H4.29764L4.37198 11.0777H0V10.6667H4.51307L4.57897 10.487H11.2953C11.346 10.3491 11.4001 10.2129 11.4559 10.0767H41.3095C41.5275 10.6101 41.7159 11.159 41.873 11.7186ZM40.9463 9.25703H11.8191C11.885 9.11918 11.9526 8.98298 12.0227 8.84677H5.30721L5.42633 8.62031H0V8.21005H5.65528L5.76257 8.02626H12.4789C12.5609 7.88841 12.6454 7.75138 12.7316 7.616H40.0338C40.3701 8.14277 40.6759 8.69087 40.9463 9.25703ZM10.4184 17.4622H42.347C42.287 18.0185 42.1966 18.5666 42.0783 19.1032H32.1195C32.2758 18.8406 32.4143 18.5666 32.5326 18.2827H19.9971C20.1153 18.5666 20.2531 18.8406 20.4093 19.1032H10.6871C10.657 18.9668 10.6288 18.83 10.6026 18.6929H3.88705C3.87329 18.6208 3.86006 18.5486 3.84734 18.4763H0V18.0661H3.7806C3.7709 18.0016 3.76161 17.937 3.75272 17.8724H10.4691C10.4504 17.7359 10.4335 17.5991 10.4184 17.4622ZM10.8924 19.9237H41.8722C41.7159 20.4841 41.5275 21.0314 41.3095 21.5647H29.5394C29.9675 21.3339 30.3686 21.0588 30.7357 20.7442H21.794C22.1611 21.0588 22.5622 21.3339 22.9903 21.5647H11.4559C11.4004 21.4287 11.3469 21.2919 11.2953 21.1545H4.57897L4.50631 20.9567H0V20.5465H4.36607C4.34303 20.4758 4.3205 20.4049 4.29848 20.334H11.014C10.9718 20.1977 10.9312 20.0615 10.8924 19.9237ZM11.8191 22.3852H40.9463C40.6762 22.9495 40.3715 23.4975 40.0338 24.0263H12.7316C12.6449 23.8908 12.5604 23.754 12.4781 23.616H5.76257C5.72033 23.5454 5.67893 23.4749 5.63838 23.4035H0V22.9932H5.41112L5.30721 22.7963H12.0236C11.9534 22.6605 11.8852 22.5238 11.8191 22.3861V22.3852ZM14.2945 26.0775C14.4187 26.217 14.5462 26.3532 14.6763 26.4878H38.0891C38.5877 25.9718 39.0497 25.4235 39.472 24.8468H13.2934C13.3947 24.9854 13.4978 25.1225 13.6043 25.257H6.88788L7.05516 25.4663H0V25.8765H7.40069C7.45898 25.9446 7.51812 26.0111 7.5781 26.0775H14.2945ZM17.0968 28.5391C17.3021 28.681 17.5107 28.8181 17.7219 28.9493H35.0434C35.821 28.4643 36.5542 27.9153 37.2349 27.3083H15.5313C15.6876 27.4478 15.8473 27.5848 16.0095 27.7186H9.2931C9.38435 27.7941 9.47643 27.8679 9.56936 27.9401H0V28.3504H10.1143C10.2021 28.4144 10.2917 28.4775 10.3812 28.5391H17.0976H17.0968ZM23.0249 31.0695C24.108 31.2935 25.2308 31.4109 26.3823 31.4109C28.9624 31.4109 31.3997 30.8201 33.5591 29.7698H19.2055C19.5062 29.9159 19.8112 30.0529 20.1213 30.1801H13.4049C13.5248 30.2293 13.6457 30.2777 13.7665 30.3245H0V30.7348H14.9746C16.4589 31.1746 18.0345 31.4109 19.6667 31.4109C20.8182 31.4109 21.9419 31.2935 23.0249 31.0695ZM13.2934 6.79549H39.472C39.0497 6.21876 38.5877 5.6705 38.0891 5.15446H14.6763C14.5462 5.28903 14.4187 5.42523 14.2936 5.56472H7.5781L7.42941 5.73374H0V6.144H7.08135C7.01629 6.22359 6.95209 6.304 6.88872 6.38523H13.6043C13.4978 6.52062 13.3947 6.65764 13.2934 6.79549ZM15.5305 4.33395H37.2341C36.5537 3.72697 35.8207 3.17794 35.0434 2.69292H17.7219C17.5107 2.82503 17.3021 2.96205 17.0968 3.10318H10.3812C10.2883 3.168 10.1954 3.23282 10.1041 3.29928H0V3.70954H9.56007C9.47052 3.7801 9.38181 3.85149 9.29395 3.92369H16.0095C15.8473 4.05744 15.6876 4.19446 15.5305 4.33395ZM19.2063 1.87241H33.5599C31.332 0.789691 28.8744 0.227733 26.3831 0.231385C25.2308 0.231385 24.108 0.349539 23.0249 0.573538C21.921 0.3456 20.7954 0.23092 19.6667 0.231385C17.8639 0.231385 16.1311 0.520205 14.5133 1.0519H0V1.46215H20.1213C19.8119 1.58952 19.5068 1.72634 19.2063 1.87241ZM93.9854 0C94.5404 0 94.9764 0.134564 95.2932 0.403692C95.6235 0.660513 95.7882 1.01908 95.7882 1.48185C95.7882 1.9438 95.6235 2.30892 95.2932 2.57805C94.9764 2.83487 94.5404 2.96369 93.9854 2.96369C93.4312 2.96369 92.9885 2.83487 92.6582 2.57805C92.3413 2.30892 92.1825 1.9438 92.1825 1.48185C92.1825 1.0199 92.3413 0.661333 92.6582 0.403692C92.9885 0.134564 93.4312 0 93.9854 0ZM95.5306 4.75241V13.1225C95.5306 13.6615 95.6235 14.0275 95.8085 14.2195C96.0062 14.4123 96.3365 14.5083 96.7987 14.5083V14.912C96.4291 14.8945 96.0593 14.8816 95.6894 14.8734C95.1812 14.8476 94.6725 14.8348 94.1636 14.8349C93.6491 14.8349 93.127 14.848 92.599 14.8734C92.2027 14.8819 91.8064 14.8948 91.4103 14.912V14.5083C91.8725 14.5083 92.196 14.4123 92.3811 14.2195C92.5787 14.0275 92.6784 13.6615 92.6784 13.1225V7.06133C92.6784 6.48451 92.5855 6.06031 92.4005 5.792C92.229 5.50974 91.8987 5.36862 91.4103 5.36862V4.9641C91.8328 5.00267 92.2425 5.02154 92.6387 5.02154C93.1929 5.02154 93.7083 5.00267 94.1839 4.9641C94.6722 4.91323 95.1217 4.84267 95.5306 4.75241Z" fill="#0C0D1A"/>
<path fill-rule="evenodd" clip-rule="evenodd" d="M101.105 6.51683V4.75109C100.697 4.84134 100.247 4.91191 99.7588 4.96278C99.2696 5.00134 98.7543 5.02021 98.2127 5.02021C97.8165 5.02021 97.4076 5.00134 96.9844 4.96278V5.36729C97.46 5.36729 97.7903 5.50842 97.9754 5.79068C98.1604 6.0598 98.2525 6.48319 98.2525 7.06001V16.6813C98.2525 17.1942 98.1604 17.5404 97.9754 17.7201C97.8039 17.8998 97.4997 17.9892 97.0638 17.9892V18.3938L98.1139 18.3363C98.5959 18.3233 99.0781 18.3167 99.5603 18.3166C100.234 18.3166 100.868 18.3232 101.462 18.3355C102.069 18.3618 102.545 18.3806 102.889 18.3929V17.9892C102.334 17.9892 101.898 17.8867 101.581 17.6815C101.264 17.4895 101.105 17.0916 101.105 16.4885V14.5603C101.279 14.7014 101.484 14.818 101.72 14.9107C102.142 15.0912 102.611 15.1806 103.126 15.1806C103.827 15.1806 104.453 15.0584 105.009 14.8147C105.573 14.5737 106.069 14.2041 106.455 13.7373C106.864 13.25 107.175 12.6534 107.386 11.9478C107.611 11.2422 107.723 10.4216 107.723 9.48462C107.723 8.42042 107.564 7.53509 107.247 6.82944C106.931 6.11068 106.507 5.57898 105.979 5.23273C105.452 4.87353 104.821 4.68491 104.176 4.69365C103.41 4.69365 102.737 4.88565 102.156 5.27047C101.699 5.56996 101.349 5.98514 101.105 6.51765V6.51683ZM101.105 7.17816V14.1533C101.215 14.2797 101.348 14.3847 101.502 14.4684C101.753 14.5964 102.036 14.6604 102.354 14.6604C102.948 14.6604 103.417 14.4684 103.761 14.0836C104.104 13.6856 104.348 13.1343 104.493 12.4286C104.652 11.7107 104.731 10.8573 104.731 9.86944C104.731 8.76667 104.659 7.90021 104.513 7.2717C104.368 6.64319 104.17 6.19437 103.919 5.92524C103.668 5.65529 103.365 5.52073 103.007 5.52073C102.532 5.52073 102.096 5.70124 101.7 6.0598C101.402 6.33878 101.203 6.71211 101.105 7.17816Z" fill="#0C0D1A"/>
<path d="M112.272 4.69355C112.827 4.69355 113.308 4.76411 113.718 4.90524C114.141 5.03324 114.445 5.16206 114.63 5.29006C115.078 5.58544 115.356 5.39262 115.462 4.71242H115.877C115.851 5.0718 115.831 5.51488 115.818 6.04001C115.805 6.55365 115.798 7.2396 115.798 8.09949H115.382C115.315 7.61839 115.188 7.14684 115.006 6.69478C114.837 6.25605 114.558 5.86551 114.194 5.55919C113.85 5.2638 113.401 5.11611 112.846 5.11611C112.464 5.11611 112.14 5.22606 111.876 5.44431C111.611 5.64944 111.479 5.95057 111.479 6.34852C111.479 6.73334 111.598 7.07303 111.836 7.36842C112.074 7.65067 112.377 7.92637 112.747 8.19549C113.13 8.45231 113.526 8.72801 113.936 9.02257C114.372 9.34339 114.768 9.66421 115.125 9.98503C115.467 10.2752 115.755 10.6202 115.976 11.0049C116.188 11.3766 116.294 11.8189 116.294 12.3325C116.294 12.9093 116.122 13.4156 115.779 13.8521C115.435 14.2755 114.979 14.6029 114.412 14.8334C113.857 15.0648 113.236 15.1805 112.55 15.1805C112.189 15.1845 111.83 15.1456 111.479 15.0648C111.205 14.9984 110.939 14.9015 110.687 14.776C110.515 14.6989 110.35 14.6283 110.192 14.5643C110.057 14.4923 109.918 14.4282 109.775 14.3723C109.643 14.3337 109.524 14.3781 109.419 14.5069C109.327 14.6349 109.254 14.8146 109.201 15.0451H108.785C108.811 14.6349 108.832 14.1344 108.844 13.5444C108.858 12.9545 108.865 12.1717 108.865 11.1978H109.28C109.36 11.8903 109.505 12.5056 109.716 13.0439C109.927 13.5707 110.211 13.9875 110.568 14.2952C110.938 14.5906 111.4 14.7383 111.955 14.7383C112.18 14.7383 112.398 14.6931 112.609 14.6029C112.82 14.5126 112.992 14.3649 113.124 14.1598C113.27 13.9547 113.342 13.6921 113.342 13.3721C113.342 12.8068 113.15 12.3383 112.767 11.9666C112.398 11.5949 111.922 11.1904 111.341 10.7547C110.918 10.4207 110.515 10.0942 110.133 9.77334C109.778 9.45798 109.471 9.09525 109.221 8.69601C108.98 8.28616 108.857 7.82077 108.865 7.34872C108.865 6.7719 109.023 6.28452 109.339 5.88657C109.663 5.48447 110.095 5.17789 110.588 5.00124C111.124 4.79469 111.695 4.69022 112.272 4.69355ZM136.866 4.90524C136.522 4.76411 136.073 4.69355 135.518 4.69355C134.897 4.68742 134.284 4.833 133.735 5.11693C133.194 5.38606 132.765 5.84144 132.447 6.48308V4.7518C132.038 4.84124 131.589 4.9118 131.1 4.96267C130.625 5.00124 130.109 5.02011 129.555 5.02011C129.159 5.02011 128.749 5.00124 128.327 4.96267V5.36719C128.815 5.36719 129.146 5.50831 129.317 5.79057C129.502 6.0597 129.594 6.48308 129.594 7.0599V13.121C129.594 13.6601 129.495 14.0261 129.298 14.2181C129.113 14.4109 128.789 14.5069 128.327 14.5069V14.9106C128.723 14.8933 129.119 14.8805 129.516 14.872C130.03 14.8467 130.545 14.8338 131.061 14.8334C131.523 14.8334 131.972 14.8466 132.407 14.872C132.857 14.8851 133.187 14.8983 133.398 14.9106V14.5069C133.055 14.5069 132.81 14.4109 132.665 14.2181C132.52 14.0261 132.447 13.6601 132.447 13.121V7.77211C132.447 7.34872 132.533 6.97047 132.705 6.63652C132.89 6.29026 133.127 6.02113 133.418 5.82913C133.697 5.64026 134.029 5.53942 134.369 5.54031C134.673 5.54031 134.897 5.61088 135.042 5.75201C135.201 5.88001 135.307 6.06626 135.36 6.30996C135.412 6.54052 135.439 6.81621 135.439 7.13703V13.121C135.439 13.6601 135.366 14.0261 135.221 14.2181C135.089 14.4109 134.845 14.5069 134.488 14.5069V14.9106C134.726 14.8983 135.075 14.8851 135.538 14.872C136.475 14.8201 137.415 14.8201 138.352 14.872C138.84 14.8851 139.203 14.8983 139.441 14.9106V14.5069C139.018 14.5069 138.721 14.4109 138.549 14.2181C138.378 14.0261 138.292 13.6601 138.292 13.121V7.85744L138.291 7.79754L138.287 7.60308C138.318 7.28145 138.406 6.96756 138.549 6.6759C138.734 6.32883 138.972 6.05313 139.262 5.84801C139.553 5.64288 139.871 5.54031 140.214 5.54031C140.557 5.54031 140.808 5.61088 140.966 5.75201C141.138 5.88001 141.25 6.06626 141.303 6.30996C141.369 6.54052 141.402 6.81621 141.402 7.13703V13.121C141.402 13.6601 141.33 14.0261 141.184 14.2181C141.053 14.4109 140.808 14.5069 140.451 14.5069V14.9106C140.689 14.8983 141.039 14.8851 141.501 14.872C141.97 14.8462 142.439 14.8333 142.908 14.8334C143.397 14.8334 143.892 14.8466 144.394 14.872C144.896 14.8851 145.272 14.8983 145.523 14.9106V14.5069C145.061 14.5069 144.731 14.4109 144.532 14.2181C144.347 14.0261 144.255 13.6601 144.255 13.121V7.94524C144.255 7.3036 144.209 6.79078 144.117 6.40596C144.024 6.00801 143.873 5.68801 143.66 5.44431C143.449 5.21293 143.172 5.03406 142.828 4.90524C142.485 4.76411 142.036 4.69355 141.482 4.69355C140.808 4.69355 140.174 4.82811 139.58 5.09724C139.011 5.36144 138.549 5.86524 138.195 6.60862C138.183 6.5407 138.169 6.47312 138.153 6.40596C138.061 6.00801 137.909 5.68801 137.698 5.44431C137.486 5.21293 137.209 5.03406 136.866 4.90524ZM126.772 12.8133V4.75098C126.363 4.84124 125.914 4.9118 125.425 4.96267C124.95 5.00124 124.435 5.02011 123.88 5.02011C123.483 5.02011 123.075 5.00124 122.651 4.96267V5.36719C123.14 5.36719 123.471 5.50831 123.642 5.79057C123.827 6.0597 123.919 6.48308 123.919 7.0599V12.1011C123.919 12.5245 123.827 12.9093 123.642 13.2556C123.485 13.5726 123.246 13.8446 122.949 14.0449C122.672 14.2375 122.338 14.3388 121.997 14.3337C121.668 14.3337 121.417 14.2689 121.245 14.1409C121.067 13.9896 120.942 13.7879 120.888 13.5641C120.832 13.2852 120.805 13.0015 120.809 12.7173V4.75098C120.4 4.84124 119.95 4.9118 119.462 4.96267C118.986 5.00124 118.471 5.02011 117.917 5.02011C117.521 5.02011 117.111 5.00124 116.689 4.96267V5.36719C117.177 5.36719 117.507 5.50831 117.679 5.79057C117.864 6.0597 117.956 6.48308 117.956 7.0599V11.928C117.956 12.5565 118.002 13.0702 118.095 13.4673C118.187 13.8652 118.346 14.1861 118.57 14.4297C118.768 14.648 119.039 14.8277 119.383 14.9688C119.726 15.1091 120.175 15.1805 120.73 15.1805C121.417 15.1805 122.037 15.0451 122.592 14.776C123.16 14.4937 123.603 14.0318 123.919 13.391V15.1223C124.362 15.0165 124.813 14.9457 125.267 14.9106C125.743 14.872 126.257 14.8531 126.812 14.8531C127.222 14.8531 127.631 14.872 128.04 14.9106V14.5069C127.565 14.5069 127.235 14.3723 127.049 14.1024C126.864 13.8201 126.772 13.391 126.772 12.8142V12.8133Z" fill="#0C0D1A"/>
<path fill-rule="evenodd" clip-rule="evenodd" d="M88.4472 5.21366C87.7207 4.8674 86.875 4.69428 85.9111 4.69428C84.9733 4.69428 84.1344 4.8674 83.3952 5.21366C82.6686 5.55992 82.0941 6.11787 81.6717 6.88751C81.262 7.65715 81.0567 8.67704 81.0567 9.9472C81.0567 11.2174 81.262 12.2364 81.6709 13.0069C82.0933 13.7634 82.6678 14.3148 83.3943 14.661C84.1344 15.0073 84.9733 15.1812 85.9111 15.1812C86.875 15.1812 87.7207 15.0073 88.4472 14.661C89.1729 14.3148 89.7415 13.7634 90.1504 13.0069C90.5602 12.2372 90.7646 11.2174 90.7646 9.9472C90.7646 8.67704 90.5602 7.65797 90.1504 6.88751C89.7415 6.11787 89.1729 5.55992 88.4472 5.21366ZM84.5838 6.23356C84.9404 5.46392 85.383 5.0791 85.9111 5.0791C86.4526 5.0791 86.8953 5.46392 87.2383 6.23356C87.5948 6.99007 87.7731 8.22822 87.7731 9.9472C87.7731 11.6662 87.5948 12.9043 87.2383 13.6608C86.8953 14.4174 86.4526 14.7964 85.9111 14.7964C85.383 14.7964 84.9404 14.4174 84.5838 13.6608C84.2273 12.9043 84.0491 11.6662 84.0491 9.9472C84.0491 8.22822 84.2265 6.99007 84.5838 6.23356ZM74.5963 18.5289C73.7768 18.5289 73.0443 18.4584 72.3972 18.3172C71.7636 18.1892 71.2618 17.9841 70.8917 17.7019C70.5352 17.4319 70.3569 17.0988 70.3569 16.7008C70.3569 16.3029 70.5411 15.9443 70.9112 15.6235C71.2812 15.3158 71.8295 15.0721 72.556 14.8924L72.7334 15.2001C72.5066 15.3655 72.3179 15.5751 72.1792 15.8155C72.0736 16.0469 72.0204 16.284 72.0204 16.5277C72.0204 17.0668 72.2713 17.477 72.774 17.7585C73.2893 18.0539 73.9821 18.2016 74.854 18.2016C75.4479 18.2016 75.9767 18.1244 76.4389 17.971C76.9145 17.8167 77.2837 17.5854 77.5481 17.2785C77.8261 16.97 77.9646 16.5917 77.9646 16.1429C77.9646 15.7581 77.8193 15.4307 77.5287 15.1616C77.2381 14.9047 76.6568 14.7767 75.785 14.7767H74.5566C74.0159 14.7767 73.5394 14.7193 73.1305 14.6036C72.7334 14.4887 72.4234 14.3082 72.1987 14.0645C71.9748 13.8085 71.8624 13.4877 71.8624 13.1029C71.8624 12.5638 72.0804 12.0896 72.5163 11.6785C72.8576 11.3568 73.3291 11.0508 73.9306 10.7611C73.5351 10.7134 73.1467 10.6211 72.7732 10.4863C72.1792 10.268 71.7104 9.93407 71.3674 9.48525C71.0235 9.03643 70.852 8.45961 70.852 7.75397C70.852 7.04833 71.0235 6.47069 71.3674 6.02187C71.7104 5.55992 72.1792 5.22597 72.774 5.02084C73.3679 4.8034 74.0412 4.69428 74.794 4.69428C75.5476 4.69428 76.2209 4.8034 76.8148 5.02166C77.2068 5.15622 77.5431 5.3474 77.8261 5.59356C77.9942 5.35807 78.1986 5.14802 78.4394 4.9634C78.8889 4.63028 79.3713 4.46289 79.8858 4.46289C80.3082 4.46289 80.6258 4.57858 80.837 4.80997C81.0618 5.0274 81.1741 5.31622 81.1741 5.67561C81.1741 6.06043 81.0677 6.34843 80.8565 6.54125C80.6453 6.72176 80.4079 6.8112 80.1434 6.8112C79.9109 6.80821 79.6868 6.72636 79.5098 6.57981C79.3239 6.42556 79.2192 6.19499 79.193 5.8873C79.1702 5.61161 79.2496 5.27028 79.4312 4.86166C79.046 5.02084 78.7486 5.20217 78.5391 5.40648C78.3811 5.55439 78.2432 5.72119 78.1285 5.90289C78.1606 5.94145 78.1919 5.98166 78.2214 6.02187C78.5653 6.47069 78.7368 7.04751 78.7368 7.75315C78.7368 8.45879 78.5653 9.03643 78.2214 9.48525C77.8784 9.93407 77.4096 10.268 76.8148 10.4863C76.2209 10.7037 75.5476 10.8128 74.794 10.8128C74.6813 10.813 74.5686 10.8105 74.4561 10.8055C74.2778 10.9228 74.1063 11.0475 73.9424 11.1788C73.8406 11.2561 73.7589 11.3556 73.7039 11.4692C73.6489 11.5827 73.6221 11.7073 73.6256 11.8327C73.6256 12.243 73.89 12.4481 74.418 12.4481H76.5774C77.304 12.4481 77.9511 12.5318 78.5188 12.6984C79.1001 12.8658 79.5554 13.1415 79.8858 13.5263C80.2296 13.898 80.4011 14.3854 80.4011 14.9884C80.4011 15.6169 80.1899 16.2003 79.7675 16.7394C79.3577 17.2785 78.7241 17.7076 77.8649 18.0284C77.0066 18.3624 75.9168 18.5289 74.5963 18.5289ZM74.794 10.4666C75.1513 10.4666 75.4276 10.2746 75.6261 9.88976C75.8247 9.49181 75.9235 8.77961 75.9235 7.75397C75.9235 6.72751 75.8247 6.02186 75.6261 5.63704C75.4284 5.2391 75.1513 5.04053 74.7948 5.04053C74.451 5.04053 74.1739 5.2391 73.9627 5.63704C73.7641 6.02186 73.6653 6.72751 73.6653 7.75397C73.6653 8.77961 73.7641 9.49181 73.9627 9.88976C74.1739 10.2746 74.451 10.4666 74.794 10.4666ZM67.7921 5.21366C67.0655 4.8674 66.2207 4.69428 65.2567 4.69428C64.319 4.69428 63.48 4.8674 62.7408 5.21366C62.0143 5.55992 61.4398 6.11787 61.0174 6.88751C60.6076 7.65715 60.4023 8.67704 60.4023 9.9472C60.4023 11.2174 60.6076 12.2364 61.0165 13.0069C61.4389 13.7634 62.0134 14.3148 62.74 14.661C63.48 15.0073 64.319 15.1812 65.2567 15.1812C66.2207 15.1812 67.0663 15.0073 67.7921 14.661C68.5186 14.3148 69.0863 13.7634 69.4961 13.0069C69.9058 12.2372 70.1103 11.2174 70.1103 9.9472C70.1103 8.67704 69.9058 7.65797 69.4961 6.88751C69.0872 6.11787 68.5186 5.55992 67.7921 5.21366ZM63.9287 6.23356C64.286 5.46392 64.7279 5.0791 65.2567 5.0791C65.7974 5.0791 66.2401 5.46392 66.5831 6.23356C66.9405 6.99007 67.1187 8.22822 67.1187 9.9472C67.1187 11.6662 66.9405 12.9043 66.5839 13.6608C66.2401 14.4174 65.7983 14.7964 65.2567 14.7964C64.7279 14.7964 64.2852 14.4174 63.9287 13.6608C63.5721 12.9043 63.3939 11.6662 63.3939 9.9472C63.3939 8.22822 63.5721 6.99007 63.9287 6.23356Z" fill="#0C0D1A"/>
<path d="M55.0719 1.28906V1.6747C54.6233 1.68701 54.2795 1.73788 54.0421 1.82814C53.9334 1.86387 53.8352 1.92451 53.7558 2.00492C53.6764 2.08534 53.6181 2.18315 53.5859 2.29009C53.5073 2.50752 53.4676 2.8546 53.4676 3.32886V13.1036C53.4676 13.5008 53.4938 13.7961 53.547 13.989C53.6129 14.181 53.732 14.309 53.9035 14.3738C54.0885 14.4378 54.3597 14.4698 54.7154 14.4698H55.687C56.1347 14.4698 56.558 14.3672 56.9542 14.1621C57.3513 13.957 57.7069 13.6681 58.0238 13.2956C58.3579 12.8819 58.6254 12.4213 58.817 11.9295C59.0283 11.4043 59.1862 10.8201 59.2918 10.1785H59.748C59.7083 10.615 59.6889 11.1795 59.6889 11.872C59.6889 12.1674 59.6948 12.5966 59.7083 13.1611C59.7219 13.7256 59.7607 14.3098 59.8266 14.912C59.0677 14.8849 58.3084 14.872 57.549 14.8735C56.7041 14.8612 55.9505 14.8546 55.2899 14.8546H54.0227C53.5073 14.8546 52.9523 14.8612 52.3583 14.8735C51.7636 14.8735 51.1629 14.88 50.5555 14.8932C49.9472 14.8932 49.3727 14.8997 48.832 14.912V14.5272C49.2544 14.5018 49.5713 14.4501 49.7825 14.3738C49.9937 14.2967 50.1322 14.1424 50.199 13.9118C50.2775 13.6804 50.3172 13.3342 50.3172 12.8722V3.32886C50.3172 2.85378 50.2775 2.50834 50.199 2.29009C50.1729 2.18335 50.1192 2.08486 50.0429 2.004C49.9666 1.92313 49.8703 1.86259 49.763 1.82814C49.5518 1.73788 49.2409 1.68701 48.832 1.67388V1.28906C49.8749 1.32659 50.9185 1.34574 51.9621 1.3465C52.5434 1.3465 53.1111 1.34075 53.6653 1.32763C54.2339 1.3145 54.7027 1.30219 55.0719 1.28906Z" fill="#0C0D1A"/>
<path fill-rule="evenodd" clip-rule="evenodd" d="M143.513 30.8132C143.485 30.6754 143.504 30.4957 143.57 30.2742L146.361 20.4551C145.914 20.633 145.452 20.7717 144.979 20.8694C144.495 20.9622 143.94 21.0122 143.313 21.0221L143.214 21.3125C143.679 21.3125 143.969 21.3864 144.083 21.5341C144.196 21.6817 144.211 21.9115 144.125 22.2249L143.465 24.6446C143.423 24.5279 143.352 24.4234 143.257 24.341C143.095 24.1933 142.872 24.1195 142.588 24.1195C142.018 24.1195 141.491 24.2442 141.007 24.4928C140.52 24.7512 140.082 25.088 139.711 25.4889C139.322 25.8952 138.991 26.3512 138.729 26.8444C138.47 27.3243 138.265 27.8296 138.116 28.3517C137.981 28.8014 137.909 29.2667 137.902 29.7351C137.902 30.1773 137.974 30.5416 138.116 30.8272C138.259 31.1037 138.453 31.3113 138.7 31.4491C138.947 31.5788 139.222 31.6428 139.526 31.6428C139.991 31.6428 140.409 31.5098 140.779 31.2424C141.149 30.9658 141.495 30.5416 141.819 29.9697C141.954 29.7367 142.09 29.475 142.225 29.1845L142.132 29.5275C142.046 29.7977 141.989 30.0756 141.961 30.357C141.942 30.5966 141.961 30.8001 142.018 30.9658C142.132 31.4171 142.483 31.6436 143.072 31.6436C143.29 31.6436 143.513 31.6017 143.741 31.5189C143.969 31.436 144.182 31.2932 144.381 31.0897C144.591 30.8871 144.756 30.5974 144.88 30.2184L145.222 29.2091H144.952L144.723 29.8311C144.553 30.3021 144.391 30.6196 144.239 30.7853C144.097 30.9429 143.95 31.0208 143.798 31.0208C143.636 31.0208 143.542 30.9519 143.513 30.8132ZM142.753 27.2522C142.646 27.5894 142.529 27.9103 142.403 28.213C142.165 28.8038 141.914 29.3109 141.647 29.7351C141.391 30.1494 141.14 30.4719 140.893 30.7033C140.646 30.924 140.428 31.0348 140.238 31.0348C140.057 31.0348 139.925 30.9519 139.84 30.7862C139.763 30.6106 139.725 30.348 139.725 29.9976C139.725 29.4996 139.782 28.9925 139.896 28.4764C140.01 27.9513 140.166 27.4483 140.366 26.9691C140.549 26.5194 140.778 26.0885 141.049 25.6826C141.306 25.2953 141.577 24.9909 141.861 24.7693C142.155 24.5478 142.445 24.4378 142.73 24.4378C142.92 24.4378 143.072 24.5027 143.186 24.6315C143.265 24.7152 143.326 24.8366 143.368 24.9974L142.753 27.2522Z" fill="#0C0D1A"/>
<path d="M134.036 31.4488H132.285L133.993 25.4886C134.08 25.2121 134.107 25.0184 134.08 24.9077C134.051 24.7969 133.966 24.7419 133.823 24.7419C133.643 24.7419 133.476 24.8297 133.324 25.0045C133.172 25.1793 133.016 25.4886 132.855 25.9317L132.612 26.5807H132.342L132.712 25.5436C132.845 25.1743 133.011 24.8896 133.21 24.6861C133.41 24.4744 133.628 24.3268 133.866 24.2439C134.103 24.161 134.345 24.1192 134.592 24.1192C134.896 24.1192 135.119 24.1791 135.261 24.2997C135.413 24.4195 135.508 24.5762 135.546 24.7698C135.594 24.9785 135.604 25.1938 135.574 25.4057C135.555 25.6273 135.517 25.8439 135.46 26.0556L135.231 26.9229L135.289 26.7752C135.555 26.1204 135.811 25.5994 136.058 25.2121C136.315 24.8158 136.585 24.5343 136.87 24.3686C137.149 24.2039 137.47 24.1176 137.796 24.1192C138.137 24.1192 138.398 24.216 138.579 24.4096C138.769 24.6033 138.864 24.8429 138.864 25.1292C138.864 25.359 138.806 25.5764 138.693 25.7791C138.582 25.9692 138.426 26.1305 138.237 26.2492C138.057 26.36 137.848 26.415 137.611 26.415C137.374 26.415 137.183 26.3551 137.041 26.2353C136.908 26.1155 136.841 25.9399 136.841 25.7101C136.841 25.5066 136.889 25.3229 136.984 25.1563C137.076 24.9941 137.202 24.8528 137.354 24.7419C137.506 24.6221 137.673 24.5393 137.853 24.4925C137.833 24.4735 137.808 24.4594 137.782 24.4515C137.749 24.4417 137.716 24.437 137.682 24.4375C137.473 24.4375 137.259 24.5114 137.041 24.6591C136.823 24.7969 136.595 25.0234 136.357 25.3368C136.12 25.6502 135.878 26.0646 135.632 26.5807C135.353 27.191 135.106 27.8142 134.891 28.4482C134.783 28.7551 134.675 29.0849 134.567 29.4385L134.036 31.4488Z" fill="#0C0D1A"/>
<path fill-rule="evenodd" clip-rule="evenodd" d="M128.717 29.3125L128.657 29.5275C128.567 29.8398 128.505 30.1591 128.472 30.4817C128.443 30.7771 128.49 31.0257 128.614 31.2284C128.804 31.5049 129.127 31.6436 129.582 31.6436C129.801 31.6436 130.019 31.6017 130.237 31.5189C130.465 31.436 130.678 31.2932 130.878 31.0897C131.077 30.8781 131.244 30.5827 131.376 30.2052L131.733 29.196H131.462L131.248 29.8179C131.077 30.2971 130.912 30.6155 130.75 30.7722C130.589 30.9281 130.432 31.0069 130.28 31.0069C130.156 31.0069 130.076 30.9699 130.038 30.8961C130.008 30.8022 129.999 30.7034 130.009 30.6056C130.028 30.4884 130.056 30.3729 130.095 30.2602L131.932 24.1195C131.646 24.1859 131.356 24.2322 131.063 24.2582C130.769 24.2861 130.451 24.3041 130.109 24.3131L129.903 25.0532C129.894 24.8653 129.838 24.6824 129.739 24.5207C129.665 24.3947 129.557 24.2907 129.426 24.22C129.295 24.1493 129.148 24.1145 128.998 24.1195C128.581 24.1195 128.163 24.2442 127.745 24.4928C127.301 24.7641 126.902 25.1 126.563 25.4889C126.18 25.913 125.846 26.3767 125.566 26.8715C125.286 27.3677 125.062 27.8918 124.897 28.4346C124.742 28.923 124.661 29.4307 124.656 29.9418C124.656 30.4588 124.779 30.8731 125.026 31.1866C125.272 31.491 125.652 31.6428 126.165 31.6428C126.525 31.6428 126.872 31.5418 127.205 31.3392C127.546 31.1357 127.869 30.7993 128.173 30.33C128.361 30.0469 128.542 29.708 128.717 29.3125ZM127.489 30.7164C127.27 30.9101 127.076 31.0069 126.905 31.0069C126.763 31.0069 126.654 30.9379 126.578 30.7993C126.511 30.6516 126.478 30.4079 126.478 30.0666C126.478 29.5775 126.535 29.0754 126.649 28.5593C126.763 28.0424 126.915 27.5451 127.105 27.0659C127.304 26.5859 127.522 26.1576 127.76 25.7794C127.997 25.4019 128.234 25.1016 128.472 24.8801C128.718 24.6586 128.951 24.5486 129.17 24.5486C129.397 24.5486 129.558 24.6594 129.654 24.8801C129.748 25.0803 129.773 25.3486 129.727 25.6842L129.306 27.1956L129.355 26.9552C129.203 27.5451 129.022 28.0891 128.813 28.5872C128.631 29.0324 128.412 29.4625 128.158 29.8729C127.93 30.2323 127.707 30.5137 127.489 30.7164ZM122.741 30.2742C122.675 30.4957 122.656 30.6754 122.685 30.8132C122.713 30.9519 122.808 31.0208 122.969 31.0208C123.121 31.0208 123.268 30.9429 123.41 30.7862C123.562 30.6196 123.724 30.3021 123.895 29.8311L124.123 29.2091H124.393L124.052 30.2184C123.928 30.5966 123.762 30.8871 123.553 31.0897C123.376 31.2782 123.156 31.425 122.912 31.5189C122.699 31.5994 122.472 31.6416 122.243 31.6436C121.655 31.6436 121.303 31.4171 121.189 30.9658C121.129 30.7685 121.11 30.5616 121.133 30.357C121.151 30.1174 121.208 29.8401 121.303 29.5275L121.397 29.1845C121.261 29.475 121.125 29.7367 120.99 29.9697C120.667 30.5416 120.321 30.9658 119.951 31.2415C119.59 31.5062 119.149 31.6476 118.697 31.6436C118.394 31.6436 118.118 31.5779 117.872 31.4499C117.617 31.3038 117.414 31.0869 117.288 30.8272C117.145 30.5416 117.074 30.1773 117.074 29.7351C117.074 29.3109 117.145 28.8489 117.288 28.3517C117.43 27.8446 117.634 27.3425 117.9 26.8444C118.162 26.3514 118.493 25.8954 118.882 25.4889C119.272 25.0737 119.703 24.7423 120.178 24.4928C120.665 24.2433 121.208 24.115 121.759 24.1195C122.043 24.1195 122.267 24.1933 122.428 24.341C122.521 24.4206 122.591 24.5215 122.637 24.6446L123.296 22.2249C123.383 21.9115 123.368 21.6809 123.254 21.5332C123.14 21.3855 122.85 21.3117 122.386 21.3117L122.485 21.0221C123.044 21.0189 123.602 20.9679 124.151 20.8694C124.624 20.7717 125.086 20.633 125.533 20.4551L122.741 30.2742ZM121.574 28.213C121.7 27.9094 121.818 27.5894 121.924 27.2522L122.54 24.9974C122.511 24.8628 122.448 24.7372 122.357 24.6315C122.301 24.5679 122.231 24.5175 122.152 24.4839C122.073 24.4504 121.988 24.4346 121.902 24.4378C121.617 24.4378 121.327 24.5486 121.033 24.7693C120.748 24.9909 120.477 25.2953 120.221 25.6826C119.95 26.088 119.721 26.5187 119.538 26.9683C119.335 27.4565 119.178 27.9612 119.068 28.4764C118.956 28.9762 118.898 29.4861 118.897 29.9976C118.897 30.348 118.935 30.6106 119.011 30.7853C119.096 30.9519 119.229 31.0348 119.409 31.0348C119.599 31.0348 119.817 30.924 120.064 30.7025C120.312 30.4727 120.563 30.1494 120.819 29.7343C121.115 29.2491 121.368 28.7402 121.574 28.213Z" fill="#0C0D1A"/>
<path d="M109.23 31.4488H110.982L111.147 30.8236L111.138 30.8687C111.319 30.2229 111.522 29.601 111.751 29.0012C111.972 28.4288 112.219 27.8659 112.491 27.3142C112.747 26.7973 113.003 26.346 113.26 25.9587C113.516 25.5714 113.763 25.272 114 25.0594C114.238 24.8379 114.456 24.728 114.655 24.728C114.816 24.728 114.916 24.7829 114.954 24.8937C114.994 25.0194 114.999 25.1529 114.969 25.281C114.94 25.4309 114.902 25.5788 114.854 25.7241L113.559 29.5271C113.426 29.9144 113.35 30.2459 113.331 30.5224C113.312 30.7989 113.364 31.0254 113.488 31.2002C113.583 31.3388 113.716 31.4447 113.886 31.5185C114.067 31.6006 114.281 31.6432 114.528 31.6432C114.755 31.6432 114.983 31.6014 115.211 31.5185C115.448 31.4447 115.666 31.306 115.866 31.1033C116.074 30.9007 116.246 30.6053 116.379 30.218L116.734 29.2088H116.464L116.236 29.8307C116.056 30.3107 115.885 30.6283 115.724 30.785C115.572 30.9425 115.425 31.0205 115.282 31.0205C115.13 31.0205 115.035 30.9606 114.997 30.84C114.959 30.712 114.983 30.5224 115.068 30.2738L116.464 26.2073C116.587 25.848 116.649 25.5115 116.649 25.1981C116.658 24.8757 116.569 24.6172 116.379 24.4236C116.198 24.2209 115.875 24.12 115.41 24.12C115.059 24.12 114.722 24.1938 114.399 24.3407C114.076 24.4884 113.763 24.746 113.46 25.1152C113.156 25.4746 112.842 25.9637 112.519 26.5807C112.305 26.9969 112.109 27.4214 111.931 27.8533L112.405 26.0555C112.463 25.834 112.505 25.6125 112.534 25.3918C112.562 25.162 112.552 24.9536 112.505 24.769C112.46 24.5784 112.343 24.4108 112.178 24.2988C112.017 24.179 111.779 24.1191 111.466 24.1191C111.086 24.1191 110.739 24.2209 110.426 24.4236C110.113 24.6262 109.856 24.9996 109.657 25.5436L109.287 26.5807H109.557L109.8 25.9308C109.971 25.4796 110.127 25.1702 110.27 25.0045C110.422 24.8297 110.587 24.7419 110.768 24.7419C110.901 24.7419 110.982 24.7788 111.011 24.8527C111.048 24.9265 111.058 25.0184 111.038 25.1292C111.017 25.2505 110.989 25.3705 110.953 25.4886L109.23 31.4488Z" fill="#0C0D1A"/>
<path fill-rule="evenodd" clip-rule="evenodd" d="M105.6 29.5271L105.66 29.3122C105.507 29.6653 105.325 30.0056 105.116 30.3296C104.811 30.7989 104.489 31.1362 104.146 31.3388C103.814 31.5415 103.468 31.6424 103.107 31.6424C102.595 31.6424 102.215 31.4906 101.969 31.1862C101.721 30.8728 101.598 30.4584 101.598 29.9415C101.598 29.4623 101.679 28.9602 101.84 28.4342C102.005 27.8914 102.229 27.3674 102.509 26.8711C102.788 26.3761 103.123 25.9125 103.506 25.4886C103.845 25.0997 104.244 24.7637 104.688 24.4925C105.105 24.2439 105.524 24.1191 105.941 24.1191C106.264 24.1191 106.51 24.2529 106.682 24.5212C106.773 24.6582 106.828 24.8354 106.846 25.0529L107.052 24.3128C107.393 24.3038 107.712 24.2857 108.006 24.2578C108.31 24.2299 108.599 24.184 108.874 24.1191L107.037 30.2607C106.999 30.3732 106.97 30.4888 106.952 30.6061C106.941 30.7038 106.951 30.8026 106.981 30.8966C107.019 30.9704 107.099 31.0073 107.223 31.0073C107.375 31.0073 107.531 30.9294 107.692 30.7727C107.854 30.616 108.02 30.2968 108.191 29.8184L108.404 29.1957H108.675L108.319 30.2049C108.186 30.5831 108.02 30.8777 107.821 31.091C107.643 31.279 107.424 31.4255 107.18 31.5193C106.972 31.6005 106.749 31.6428 106.525 31.6441C106.069 31.6441 105.747 31.5054 105.557 31.2289C105.433 31.0262 105.386 30.7776 105.415 30.4822C105.448 30.1595 105.51 29.8394 105.6 29.5271ZM103.847 31.0065C104.019 31.0065 104.213 30.9097 104.432 30.7161C104.65 30.5134 104.873 30.232 105.101 29.8726C105.328 29.5132 105.547 29.0849 105.756 28.5868C105.965 28.0888 106.145 27.5448 106.297 26.954L106.249 27.1952L106.67 25.6847C106.715 25.3483 106.69 25.08 106.597 24.8806C106.501 24.659 106.34 24.5483 106.112 24.5483C105.894 24.5483 105.661 24.659 105.415 24.8798C105.177 25.1013 104.94 25.4008 104.702 25.779C104.465 26.1565 104.246 26.5856 104.047 27.0648C103.856 27.5504 103.703 28.0497 103.591 28.5581C103.48 29.0535 103.423 29.5591 103.421 30.0662C103.421 30.4076 103.454 30.6521 103.52 30.7989C103.597 30.9376 103.706 31.0065 103.847 31.0065Z" fill="#0C0D1A"/>
<path d="M102.589 24.5882L102.632 24.3117H100.936L101.607 22.0438C101.326 22.1109 101.041 22.1573 100.753 22.1825C100.459 22.2096 100.14 22.2284 99.7989 22.2375L99.1864 24.3117H97.8905L97.8195 24.5882H99.1053L97.648 29.5261C97.5247 29.9314 97.4824 30.2957 97.5204 30.6182C97.5677 30.9316 97.7004 31.181 97.9192 31.3648C98.1465 31.5495 98.4742 31.6422 98.9017 31.6422C99.3858 31.6422 99.8032 31.5175 100.155 31.268C100.506 31.0194 100.781 30.6091 100.981 30.0373L101.266 29.2077H100.994L100.781 29.7747C100.61 30.2358 100.421 30.5583 100.211 30.7429C100.012 30.9275 99.8124 31.0194 99.6131 31.0194C99.5347 31.0219 99.4568 31.007 99.3853 30.9757C99.3139 30.9444 99.2507 30.8976 99.2008 30.8389C99.1053 30.7199 99.096 30.5312 99.1721 30.2727L100.854 24.5882H102.589ZM97.8736 21.5597C97.779 21.7993 97.6505 22.1505 97.4892 22.6108C97.3371 23.0621 97.1859 23.6528 97.0338 24.3806H96.7491C96.777 24.2518 96.7964 24.1181 96.8057 23.9802C96.8239 23.8565 96.8335 23.7318 96.8344 23.6069C96.8344 23.2467 96.7584 22.9341 96.6063 22.6666C96.4603 22.3861 96.2259 22.1581 95.9372 22.0159C95.6432 21.8502 95.2631 21.7673 94.7984 21.7673C94.2949 21.7673 93.8674 21.8961 93.5168 22.1546C93.1653 22.4032 92.9896 22.8044 92.9896 23.3575C92.9896 23.6988 93.0699 24.0221 93.2312 24.3257C93.4027 24.621 93.6165 24.9115 93.8725 25.197C94.1386 25.4736 94.4182 25.755 94.7122 26.0405C95.0071 26.317 95.2825 26.6034 95.5385 26.898C95.7945 27.1934 96.004 27.5068 96.1653 27.8383C96.336 28.1616 96.4213 28.516 96.4213 28.9033C96.4213 29.3923 96.298 29.8116 96.0513 30.162C95.8106 30.5061 95.4944 30.7942 95.1253 31.0055C94.7385 31.2203 94.3212 31.3787 93.8868 31.4756C93.4687 31.5841 93.038 31.64 92.6052 31.6422C92.1777 31.6422 91.8221 31.6094 91.5374 31.5454C91.294 31.5008 91.0589 31.4215 90.8395 31.3099C90.6531 31.2106 90.4678 31.1094 90.2836 31.0063C90.1998 30.938 90.1031 30.8861 89.9989 30.8537C89.9326 30.8213 89.8602 30.8023 89.786 30.7979C89.6618 30.7979 89.5579 30.8578 89.4726 30.9784C89.3606 31.1585 89.2653 31.348 89.1879 31.5445H88.9023C89.1375 30.9821 89.3329 30.4048 89.487 29.8165C89.6002 29.3923 89.7286 28.8623 89.8714 28.2256H90.1561C90.1163 28.4087 90.0831 28.5932 90.0564 28.7786C90.0277 28.9632 90.0184 29.1478 90.0277 29.3324C90.0564 29.9774 90.26 30.4754 90.6402 30.8258C91.0296 31.1761 91.599 31.3509 92.3484 31.3509C92.9846 31.3509 93.4644 31.2221 93.7871 30.9644C94.1099 30.6969 94.2712 30.3097 94.2712 29.8026C94.2712 29.4153 94.1952 29.0641 94.0431 28.7515C93.8996 28.4263 93.7077 28.1233 93.4737 27.8522C93.2324 27.5717 92.9807 27.2996 92.7193 27.0366C92.4573 26.7736 92.2053 26.5013 91.964 26.2202C91.7309 25.941 91.5348 25.6344 91.3802 25.3078C91.2248 24.9586 91.1473 24.5814 91.153 24.2009C91.153 23.7406 91.2527 23.3394 91.452 22.9981C91.6529 22.6651 91.9245 22.3776 92.2487 22.1546C92.5812 21.924 92.9522 21.7508 93.3453 21.6426C93.7277 21.5253 94.1262 21.4647 94.5272 21.4629C95.04 21.4629 95.4624 21.5228 95.7945 21.6434C96.1273 21.7624 96.412 21.906 96.6494 22.0717L96.9198 22.2375C97.0051 22.2744 97.0718 22.2924 97.1191 22.2924C97.2518 22.2924 97.4089 22.0487 97.5889 21.5597H97.8736Z" fill="#0C0D1A"/>
<path fill-rule="evenodd" clip-rule="evenodd" d="M84.1261 30.8132C84.0974 30.6754 84.1168 30.4957 84.1836 30.2742L86.974 20.4551C86.5273 20.633 86.065 20.7717 85.5928 20.8694C85.1087 20.9622 84.5536 21.0122 83.9268 21.0221L83.8271 21.3125C84.2917 21.3125 84.5823 21.3864 84.6955 21.5341C84.8096 21.6817 84.824 21.9115 84.7386 22.2249L84.078 24.6446C84.0365 24.5279 83.9649 24.4234 83.8701 24.341C83.7088 24.1933 83.4858 24.1195 83.201 24.1195C82.6308 24.1195 82.1045 24.2442 81.6204 24.4928C81.1334 24.7512 80.6952 25.088 80.3244 25.4889C79.9348 25.8952 79.6043 26.3512 79.3419 26.8444C79.0833 27.3243 78.8779 27.8296 78.7294 28.3517C78.5942 28.8013 78.5223 29.2667 78.5156 29.7351C78.5156 30.1773 78.5874 30.5416 78.7294 30.8272C78.8721 31.1037 79.0665 31.3113 79.3131 31.4491C79.5598 31.5788 79.8352 31.6428 80.1394 31.6428C80.604 31.6428 81.0222 31.5098 81.3923 31.2424C81.7623 30.9658 82.1087 30.5416 82.4314 29.9697C82.5666 29.7367 82.7026 29.475 82.8386 29.1845L82.7457 29.5275C82.6593 29.7975 82.6018 30.0755 82.5742 30.357C82.5515 30.5616 82.5707 30.7685 82.6308 30.9658C82.7448 31.4171 83.0954 31.6436 83.6851 31.6436C83.9031 31.6436 84.1261 31.6017 84.3542 31.5189C84.5823 31.436 84.7952 31.2932 84.9946 31.0897C85.2041 30.8871 85.3697 30.5974 85.4931 30.2184L85.8352 29.2091H85.5649L85.3368 29.8311C85.1661 30.3021 85.0048 30.6196 84.8527 30.7853C84.7099 30.9429 84.5629 31.0208 84.4108 31.0208C84.2503 31.0208 84.1549 30.9519 84.1261 30.8132ZM83.3658 27.2522C83.2593 27.5894 83.1427 27.9103 83.0152 28.213C82.7786 28.8038 82.5269 29.3109 82.2608 29.7351C82.0048 30.1494 81.753 30.4719 81.5063 30.7033C81.2596 30.924 81.0417 31.0348 80.8507 31.0348C80.6708 31.0348 80.5381 30.9519 80.4528 30.7862C80.3768 30.6106 80.3388 30.348 80.3388 29.9976C80.3388 29.4996 80.3954 28.9925 80.5094 28.4764C80.6235 27.9513 80.7798 27.4483 80.9791 26.9691C81.1628 26.5193 81.3921 26.0884 81.6635 25.6826C81.9194 25.2953 82.1898 24.9909 82.4745 24.7693C82.7685 24.5478 83.0583 24.4378 83.343 24.4378C83.5331 24.4378 83.6851 24.5027 83.7992 24.6315C83.8786 24.7152 83.9394 24.8366 83.9817 24.9974L83.3658 27.2522Z" fill="#0C0D1A"/>
<path d="M72.4271 31.4488H70.6758L72.3992 25.4886C72.4372 25.3598 72.4651 25.24 72.4837 25.1292C72.5049 25.0365 72.4951 24.9396 72.4558 24.8527C72.4271 24.7788 72.346 24.7419 72.2134 24.7419C72.0334 24.7419 71.867 24.8297 71.7149 25.0045C71.573 25.1702 71.4159 25.4796 71.2452 25.9317L71.0036 26.5807H70.7332L71.1033 25.5436C71.3026 24.9996 71.5595 24.6262 71.8721 24.4236C72.1846 24.2209 72.531 24.12 72.9112 24.12C73.2246 24.12 73.462 24.179 73.6234 24.2988C73.7889 24.4107 73.9057 24.5782 73.9512 24.769C73.9985 24.9536 74.0078 25.1612 73.9799 25.3918C73.9509 25.6153 73.908 25.837 73.8515 26.0555L73.3767 27.8541C73.5778 27.3708 73.7738 26.9474 73.9655 26.5807C74.2883 25.9637 74.6009 25.4746 74.905 25.1152C75.2091 24.746 75.5217 24.4884 75.8444 24.3407C76.168 24.193 76.5042 24.1191 76.8557 24.1191C77.3204 24.1191 77.6439 24.2209 77.8239 24.4236C78.014 24.6172 78.1043 24.8748 78.0942 25.1981C78.0942 25.5115 78.0334 25.848 77.9092 26.2073L76.5144 30.2738C76.4282 30.5224 76.4046 30.712 76.4426 30.84C76.4806 30.9606 76.5761 31.0205 76.7281 31.0205C76.8701 31.0205 77.0171 30.9425 77.1691 30.7858C77.3305 30.6283 77.5011 30.3099 77.6819 29.8307L77.91 29.2088H78.1804L77.8239 30.218C77.6912 30.6053 77.5197 30.9007 77.3119 31.1042C77.133 31.2939 76.9074 31.4365 76.6563 31.5185C76.4381 31.5998 76.2066 31.6421 75.9729 31.6432C75.7262 31.6432 75.5124 31.6014 75.3325 31.5185C75.161 31.4447 75.0283 31.338 74.9337 31.2002C74.8104 31.0254 74.758 30.7989 74.7766 30.5224C74.796 30.2459 74.872 29.9144 75.0047 29.5271L76.3006 25.7241C76.348 25.5764 76.386 25.4287 76.4147 25.281C76.4446 25.1529 76.4396 25.0194 76.4003 24.8937C76.3623 24.7829 76.2626 24.728 76.1013 24.728C75.9019 24.728 75.6831 24.8387 75.4465 25.0594C75.2091 25.272 74.9616 25.5714 74.7056 25.9587C74.4215 26.3951 74.1647 26.8478 73.9368 27.3142C73.6808 27.8311 73.4333 28.3924 73.1959 29.0012C72.9678 29.6002 72.765 30.2229 72.5842 30.8687L72.5927 30.8236L72.4271 31.4488Z" fill="#0C0D1A"/>
<path fill-rule="evenodd" clip-rule="evenodd" d="M67.1041 29.3126L67.0449 29.5276C66.9552 29.84 66.893 30.1592 66.8591 30.4818C66.8303 30.7772 66.8776 31.0258 67.001 31.2285C67.1911 31.505 67.5138 31.6437 67.97 31.6437C68.2135 31.642 68.454 31.592 68.6769 31.4967C68.8997 31.4015 69.1002 31.263 69.266 31.0898C69.4653 30.8781 69.6309 30.5828 69.7644 30.2053L70.1192 29.1961H69.8489L69.636 29.818C69.4645 30.2972 69.2981 30.6156 69.1376 30.7723C68.9762 30.9282 68.8191 31.007 68.6678 31.007C68.5436 31.007 68.4634 30.97 68.4254 30.8962C68.3957 30.8023 68.3859 30.7034 68.3966 30.6057C68.4161 30.4859 68.4439 30.3711 68.4828 30.2603L70.3195 24.1196C70.0338 24.1859 69.7435 24.2323 69.451 24.2582C69.1561 24.2861 68.8385 24.3042 68.4963 24.3132L68.2902 25.0533C68.2814 24.8654 68.2251 24.6826 68.1263 24.5208C68.0522 24.3949 67.9441 24.291 67.8137 24.2203C67.6833 24.1496 67.5355 24.1148 67.3862 24.1196C66.968 24.1196 66.5498 24.2443 66.1325 24.4929C65.7152 24.7423 65.3215 25.0738 64.9506 25.489C64.567 25.9129 64.2327 26.3766 63.9537 26.8716C63.6736 27.3678 63.4493 27.8919 63.2846 28.4347C63.1293 28.9231 63.0479 29.4308 63.043 29.9419C63.043 30.4589 63.1663 30.8732 63.413 31.1867C63.6597 31.4911 64.0399 31.6429 64.5518 31.6429C64.9126 31.6429 65.2598 31.5419 65.591 31.3393C65.9331 31.1358 66.2567 30.7994 66.56 30.33C66.7484 30.047 66.9292 29.7081 67.1041 29.3126ZM65.8765 30.7165C65.6586 30.9101 65.4634 31.007 65.2927 31.007C65.15 31.007 65.041 30.938 64.965 30.7994C64.8991 30.6517 64.8653 30.408 64.8653 30.0667C64.8653 29.5776 64.9227 29.0755 65.0368 28.5594C65.15 28.0424 65.302 27.5452 65.4921 27.066C65.6915 26.586 65.9095 26.1577 66.1469 25.7795C66.3843 25.402 66.6217 25.1017 66.8591 24.8802C67.1057 24.6587 67.3381 24.5487 67.5569 24.5487C67.785 24.5487 67.9455 24.6595 68.041 24.8802C68.1356 25.0804 68.1592 25.3487 68.1145 25.6843L67.6937 27.1957L67.7419 26.9553C67.5898 27.5452 67.4099 28.0892 67.2012 28.5873C66.9917 29.0845 66.7737 29.5136 66.5456 29.873C66.3175 30.2324 66.0945 30.5138 65.8765 30.7165Z" fill="#0C0D1A"/>
<path d="M59.2357 31.4488H57.4844L59.1926 25.4886C59.2779 25.2121 59.3067 25.0184 59.2779 24.9077C59.2501 24.7969 59.1647 24.7419 59.022 24.7419C58.842 24.7419 58.6756 24.8297 58.5235 25.0045C58.3714 25.1793 58.2152 25.4886 58.0538 25.9317L57.8113 26.5807H57.541L57.911 25.5436C58.0445 25.1743 58.2101 24.8896 58.4095 24.6861C58.6088 24.4744 58.8277 24.3268 59.065 24.2439C59.3016 24.161 59.5441 24.1192 59.7916 24.1192C60.0949 24.1192 60.3179 24.1791 60.4599 24.2997C60.6109 24.4173 60.7124 24.5845 60.7454 24.7698C60.7927 24.9635 60.802 25.1752 60.7733 25.4057C60.7547 25.6273 60.7167 25.8439 60.6592 26.0556L60.4311 26.9229L60.4539 26.863L60.4886 26.7752C60.7547 26.1204 61.0107 25.5994 61.2574 25.2121C61.5142 24.8158 61.7845 24.5343 62.0693 24.3686C62.3482 24.2039 62.6687 24.1176 62.9952 24.1192C63.3365 24.1192 63.5975 24.216 63.7783 24.4096C63.9676 24.6033 64.063 24.8429 64.063 25.1292C64.063 25.359 64.0056 25.5764 63.8915 25.7791C63.7811 25.9692 63.6248 26.1305 63.4362 26.2492C63.248 26.3619 63.0303 26.4194 62.8093 26.415C62.5728 26.415 62.3827 26.3551 62.2399 26.2353C62.1073 26.1155 62.0405 25.9399 62.0405 25.7101C62.0405 25.5066 62.0878 25.3229 62.1833 25.1563C62.2779 24.9905 62.4013 24.8527 62.5533 24.7419C62.7054 24.6221 62.871 24.5393 63.0518 24.4925C63.0318 24.4736 63.0075 24.4596 62.9808 24.4515C62.9619 24.4452 62.9424 24.4411 62.9225 24.4392C62.9085 24.4379 62.8944 24.4373 62.8803 24.4375C62.6725 24.4375 62.4579 24.5114 62.2399 24.6591C62.0219 24.7969 61.7938 25.0234 61.5564 25.3368C61.3199 25.6502 61.0774 26.0646 60.8299 26.5807C60.5515 27.1909 60.3046 27.8142 60.0898 28.4482C59.9825 28.7542 59.8744 29.0849 59.7663 29.4385L59.2357 31.4488Z" fill="#0C0D1A"/>
<path fill-rule="evenodd" clip-rule="evenodd" d="M56.5689 22.1702C56.0941 21.8379 55.3346 21.6722 54.2904 21.6722C53.9677 21.6722 53.6449 21.6771 53.3214 21.6861C53.0088 21.6951 52.648 21.7 52.24 21.7H51.5278C51.271 21.6902 51.0293 21.6861 50.8012 21.6861C50.6114 21.678 50.4216 21.6687 50.2318 21.6582L50.1609 21.9347C50.5309 21.9347 50.7827 21.9807 50.9153 22.0734C51.0581 22.1554 51.124 22.2851 51.1147 22.4607C51.0955 22.6846 51.0574 22.9066 51.0006 23.1245L49.1209 29.9839C49.0364 30.3154 48.9409 30.5649 48.8362 30.7306C48.7416 30.8891 48.5894 31.0077 48.4095 31.0629C48.2287 31.1179 47.977 31.1548 47.6543 31.1729L47.5977 31.4494C47.7582 31.4412 47.9533 31.4363 48.1806 31.4363C48.4087 31.4264 48.6512 31.4223 48.9071 31.4223C49.6238 31.4011 50.341 31.4058 51.0572 31.4363C51.4467 31.4445 51.8032 31.4502 52.1259 31.4502C52.7427 31.4502 53.3264 31.3895 53.8773 31.2697C54.385 31.1578 54.8706 30.9666 55.3152 30.7035C55.7129 30.4734 56.0494 30.1559 56.2977 29.7764C56.5444 29.4071 56.6677 28.9747 56.6677 28.4767C56.6677 27.9138 56.4312 27.4297 55.9564 27.0244C55.4917 26.6182 54.755 26.3786 53.7488 26.3048C54.3766 26.2172 54.9866 26.0354 55.5568 25.7657C56.089 25.4982 56.5064 25.1708 56.8105 24.7835C57.1166 24.4158 57.2826 23.9567 57.2802 23.4838C57.2802 22.9308 57.0445 22.4927 56.5689 22.1702ZM52.0237 26.4853L51.0716 29.9839C51.015 30.2137 50.977 30.4172 50.9584 30.5919C50.9482 30.7675 50.9956 30.9013 51.1003 30.994C51.2051 31.0859 51.3994 31.1318 51.6841 31.1318C52.3583 31.1318 52.9091 31.0071 53.3357 30.7585C53.7537 30.5198 54.0868 30.1628 54.2904 29.7353C54.4991 29.2923 54.603 28.7942 54.603 28.242C54.603 27.8998 54.5413 27.6004 54.418 27.3427C54.3094 27.081 54.114 26.8618 53.8629 26.7199C53.6069 26.5632 53.2648 26.4853 52.8373 26.4853H52.0237ZM52.0879 26.2498H52.7384C53.2791 26.2498 53.7396 26.116 54.1189 25.8486C54.5083 25.572 54.8032 25.2127 55.0026 24.7704C55.2102 24.3323 55.3169 23.8554 55.3152 23.3731C55.3152 22.9119 55.2205 22.5575 55.0304 22.308C54.8505 22.0594 54.532 21.9347 54.0758 21.9347C53.7446 21.9347 53.5072 21.9995 53.3644 22.1284C53.2225 22.2482 53.0992 22.5107 52.9944 22.916L52.0879 26.2498Z" fill="#0C0D1A"/>
</g>
<defs>
<clipPath id="clip0_1_15833">
<rect width="147" height="32" fill="white"/>
</clipPath>
</defs>
</svg>
