<svg width="149" height="32" viewBox="0 0 149 32" fill="none" xmlns="http://www.w3.org/2000/svg">
<path d="M23.8589 14.2616C23.4555 14.6683 23.1467 15.1592 22.9543 15.6992C22.7618 16.2392 22.6906 16.8151 22.7457 17.3859L22.7265 17.3667C22.7831 18.0386 22.6927 18.7146 22.4616 19.3479C22.2306 19.9811 21.8644 20.5561 21.3888 21.0329C20.9131 21.5096 20.3393 21.8767 19.7074 22.1081C19.0757 22.3397 18.401 22.4304 17.7307 22.3736L17.7499 22.3928C16.9481 22.3181 16.1427 22.4929 15.4436 22.8936C14.7446 23.2944 14.1858 23.9014 13.8437 24.6321C13.5015 25.3627 13.3924 26.1813 13.5314 26.9764C13.6705 27.7714 14.0508 28.5041 14.6205 29.0745C15.1902 29.645 15.9216 30.0255 16.7149 30.164C17.5083 30.3027 18.3249 30.1926 19.0537 29.849C19.7824 29.5054 20.3875 28.9449 20.7867 28.2439C21.186 27.5429 21.3598 26.7357 21.2844 25.932L21.3046 25.9512C21.248 25.2794 21.3384 24.6033 21.5694 23.97C21.8005 23.3368 22.1667 22.7618 22.6423 22.285C23.1181 21.8083 23.6918 21.4413 24.3236 21.2098C24.9554 20.9782 25.63 20.8875 26.3004 20.9443L26.2802 20.9251C26.9351 20.9841 27.5944 20.8765 28.1969 20.6121C28.7993 20.3478 29.3255 19.9353 29.7265 19.413C30.1276 18.8906 30.3906 18.2752 30.4911 17.6239C30.5917 16.9725 30.5266 16.3062 30.3018 15.6867C30.077 15.0673 29.6998 14.5147 29.2052 14.0803C28.7107 13.6458 28.1147 13.3435 27.4725 13.2015C26.8303 13.0594 26.1627 13.082 25.5315 13.2673C24.9004 13.4527 24.3262 13.7946 23.8621 14.2616H23.8589Z" fill="#0C0D1A"/>
<path d="M16.0113 19.8775L15.9911 19.8583C16.5608 19.9158 17.1362 19.8457 17.6757 19.6531C18.215 19.4604 18.705 19.1501 19.1101 18.7445C19.5151 18.3388 19.8252 17.8479 20.0177 17.3075C20.2104 16.767 20.2807 16.1904 20.2238 15.6194L20.244 15.6385C20.1874 14.9667 20.2778 14.2906 20.5088 13.6573C20.7398 13.0241 21.1061 12.4491 21.5817 11.9723C22.0574 11.4956 22.6312 11.1286 23.2629 10.8971C23.8948 10.6655 24.5693 10.5749 25.2397 10.6316L25.2195 10.6124C26.0215 10.6879 26.827 10.5136 27.5265 10.1133C28.226 9.71305 28.7852 9.10625 29.1279 8.37572C29.4706 7.64521 29.5801 6.82651 29.4415 6.0313C29.303 5.23609 28.923 4.50309 28.3534 3.93228C27.7839 3.36147 27.0525 2.98063 26.2591 2.84173C25.4657 2.70282 24.6489 2.81259 23.9199 3.15608C23.191 3.49955 22.5856 4.06003 22.1862 4.76106C21.7868 5.46207 21.6129 6.26951 21.6882 7.07322L21.6691 7.05295C21.7258 7.72483 21.6355 8.40104 21.4046 9.03434C21.1736 9.66764 20.8074 10.2428 20.3318 10.7196C19.8561 11.1963 19.2822 11.5634 18.6503 11.7948C18.0184 12.0263 17.3437 12.1167 16.6733 12.0599L16.6925 12.0802C16.1228 12.0227 15.5473 12.0927 15.0079 12.2854C14.4685 12.4779 13.9785 12.7883 13.5735 13.194C13.1684 13.5996 12.8584 14.0905 12.6657 14.631C12.4732 15.1715 12.4029 15.748 12.4598 16.3191L12.4406 16.2999C12.497 16.9717 12.4065 17.6477 12.1754 18.2809C11.9443 18.914 11.5781 19.489 11.1025 19.9657C10.6268 20.4424 10.0532 20.8093 9.42143 21.041C8.78972 21.2726 8.11518 21.3633 7.44488 21.3068L7.46404 21.326C6.66212 21.2505 5.85649 21.4248 5.15703 21.8251C4.45758 22.2254 3.89835 22.8321 3.55564 23.5627C3.21292 24.2933 3.10339 25.1119 3.24199 25.9071C3.38059 26.7023 3.76058 27.4353 4.33011 28.0061C4.89966 28.577 5.63101 28.9578 6.42445 29.0967C7.21788 29.2356 8.03475 29.1258 8.76365 28.7823C9.49254 28.4389 10.098 27.8784 10.4974 27.1774C10.8968 26.4763 11.0707 25.6689 10.9953 24.8652L11.0156 24.8844C10.9589 24.2125 11.0494 23.5365 11.2805 22.9032C11.5114 22.27 11.8776 21.695 12.3533 21.2182C12.829 20.7415 13.4028 20.3744 14.0345 20.143C14.6664 19.9114 15.3409 19.8207 16.0113 19.8775Z" fill="#0C0D1A"/>
<path d="M8.87218 17.7377C9.27557 17.3311 9.5844 16.8402 9.77666 16.3001C9.96891 15.7601 10.0398 15.1841 9.98436 14.6134L10.0046 14.6326C9.94795 13.9606 10.0384 13.2842 10.2695 12.6508C10.5007 12.0175 10.8671 11.4423 11.343 10.9655C11.819 10.4887 12.3929 10.1218 13.025 9.89039C13.6571 9.65897 14.332 9.56862 15.0025 9.62567L14.9822 9.60647C15.7839 9.68174 16.5892 9.50735 17.2883 9.1071C17.9875 8.70685 18.5463 8.1002 18.8889 7.36991C19.2314 6.63961 19.3408 5.82121 19.2022 5.02629C19.0637 4.23138 18.6837 3.49867 18.1144 2.92807C17.5452 2.35746 16.814 1.97675 16.0209 1.83785C15.2278 1.69893 14.4112 1.80861 13.6825 2.15188C12.9538 2.49516 12.3486 3.05534 11.9492 3.75603C11.5498 4.45673 11.3758 5.26383 11.4509 6.06727L11.4318 6.04807C11.4884 6.71991 11.3979 7.39603 11.1669 8.02925C10.9358 8.66247 10.5697 9.23752 10.094 9.71427C9.61836 10.191 9.04459 10.558 8.41278 10.7895C7.78098 11.0211 7.10637 11.1117 6.43603 11.055L6.45519 11.0742C5.8002 11.0153 5.14097 11.1232 4.5386 11.3876C3.93624 11.652 3.41022 12.0646 3.00929 12.5871C2.60836 13.1094 2.3455 13.7249 2.24506 14.3762C2.14462 15.0276 2.20985 15.6938 2.4347 16.3131C2.65955 16.9325 3.03677 17.485 3.53137 17.9193C4.02598 18.3538 4.62198 18.656 5.26415 18.798C5.90631 18.94 6.57386 18.9173 7.20495 18.732C7.83603 18.5466 8.41021 18.2047 8.8743 17.7377H8.87218Z" fill="#0C0D1A"/>
<path d="M41.8477 7.09961H45.0086V22.5161H41.8477V7.09961Z" fill="#0C0D1A"/>
<path d="M46.797 17.2363C46.7927 16.1284 47.1164 15.044 47.7273 14.1207C48.3382 13.1974 49.2088 12.4766 50.2288 12.0496C51.2488 11.6225 52.3723 11.5085 53.457 11.7219C54.5417 11.9353 55.5389 12.4665 56.3221 13.2484C57.1053 14.0302 57.6393 15.0274 57.8567 16.1137C58.074 17.2 57.9647 18.3265 57.5427 19.3505C57.1207 20.3744 56.405 21.2499 55.4862 21.8658C54.5673 22.4818 53.4868 22.8107 52.3813 22.8107C51.6476 22.8191 50.9195 22.6807 50.2397 22.4038C49.5598 22.1269 48.9419 21.717 48.422 21.1981C47.902 20.679 47.4905 20.0613 47.2116 19.3811C46.9325 18.7009 46.7916 17.9717 46.797 17.2363ZM54.8047 17.2363C54.7915 16.7587 54.6381 16.2957 54.3639 15.9049C54.0895 15.5143 53.7064 15.2133 53.2623 15.0398C52.8182 14.8661 52.333 14.8275 51.8672 14.9288C51.4013 15.0302 50.9756 15.2668 50.6432 15.6093C50.311 15.9517 50.0866 16.3847 49.9986 16.8543C49.9105 17.3237 49.9623 17.8088 50.1478 18.2489C50.3333 18.6891 50.6441 19.0645 51.0413 19.3285C51.4386 19.5925 51.9047 19.7333 52.3813 19.7333C52.7077 19.7421 53.0325 19.6829 53.335 19.5596C53.6375 19.4363 53.9112 19.2515 54.1389 19.0169C54.3665 18.7823 54.5433 18.5029 54.6578 18.1965C54.7725 17.89 54.8225 17.5631 54.8047 17.2363Z" fill="#0C0D1A"/>
<path d="M70.562 11.9563V21.983C70.562 25.5307 67.8012 27.0305 64.999 27.0305C64.0124 27.1045 63.0244 26.9047 62.1435 26.4532C61.2627 26.0015 60.5229 25.3156 60.0053 24.4705L62.7022 22.9078C62.9198 23.3483 63.2664 23.7117 63.6956 23.9495C64.125 24.1871 64.6165 24.2878 65.1043 24.2379C65.4162 24.2812 65.7337 24.2537 66.0336 24.1574C66.3333 24.0611 66.6076 23.8984 66.8362 23.6815C67.0648 23.4646 67.2418 23.199 67.3542 22.9042C67.4665 22.6094 67.5112 22.2932 67.4851 21.9787V21.0134C67.115 21.4673 66.6439 21.8279 66.1095 22.0663C65.5752 22.3047 64.9926 22.4142 64.4083 22.3862C63.0181 22.3422 61.6996 21.7579 60.7317 20.7567C59.7638 19.7557 59.2227 18.4164 59.2227 17.0225C59.2227 15.6285 59.7638 14.2892 60.7317 13.2882C61.6996 12.287 63.0181 11.7027 64.4083 11.6587C64.9926 11.6307 65.5752 11.7402 66.1095 11.9786C66.6439 12.217 67.115 12.5777 67.4851 13.0315V11.9542L70.562 11.9563ZM67.4862 17.0241C67.5075 16.5135 67.3757 16.0083 67.1081 15.5734C66.8404 15.1384 66.4489 14.7938 65.9842 14.5837C65.5194 14.3736 65.0026 14.3078 64.5001 14.3946C63.9977 14.4814 63.5327 14.717 63.1649 15.071C62.7972 15.4249 62.5435 15.881 62.4366 16.3806C62.3297 16.8803 62.3744 17.4006 62.5652 17.8745C62.7558 18.3484 63.0836 18.7544 63.5063 19.0401C63.929 19.3257 64.4274 19.478 64.9372 19.4774C65.2694 19.5006 65.6026 19.4539 65.9156 19.3402C66.2286 19.2265 66.5144 19.0483 66.7545 18.8172C66.9946 18.5861 67.1838 18.3071 67.3098 17.9982C67.4359 17.6894 67.496 17.3576 67.4862 17.0241Z" fill="#0C0D1A"/>
<path d="M72.3517 17.2363C72.3473 16.1284 72.671 15.044 73.282 14.1207C73.8929 13.1974 74.7635 12.4766 75.7835 12.0496C76.8035 11.6225 77.927 11.5085 79.0117 11.7219C80.0964 11.9353 81.0935 12.4665 81.8768 13.2484C82.66 14.0302 83.194 15.0274 83.4113 16.1137C83.6287 17.2 83.5194 18.3265 83.0974 19.3505C82.6754 20.3744 81.9597 21.2499 81.0409 21.8658C80.122 22.4818 79.0415 22.8107 77.936 22.8107C77.2023 22.8191 76.4741 22.6807 75.7944 22.4038C75.1145 22.1269 74.4966 21.717 73.9767 21.1981C73.4566 20.679 73.0452 20.0613 72.7662 19.3811C72.4872 18.7009 72.3463 17.9717 72.3517 17.2363ZM80.3594 17.2363C80.3462 16.7587 80.1928 16.2957 79.9186 15.9049C79.6442 15.5143 79.2611 15.2133 78.817 15.0398C78.3729 14.8661 77.8876 14.8275 77.4219 14.9288C76.956 15.0302 76.5303 15.2668 76.1979 15.6093C75.8657 15.9517 75.6413 16.3847 75.5532 16.8543C75.4651 17.3237 75.517 17.8088 75.7025 18.2489C75.888 18.6891 76.1988 19.0645 76.596 19.3285C76.9933 19.5925 77.4593 19.7333 77.936 19.7333C78.2624 19.7421 78.5871 19.6829 78.8896 19.5596C79.1922 19.4363 79.4659 19.2515 79.6936 19.0169C79.9212 18.7823 80.098 18.5029 80.2125 18.1965C80.3271 17.89 80.3772 17.5631 80.3594 17.2363Z" fill="#0C0D1A"/>
<path d="M84.9961 9.12541C84.9961 8.74946 85.1073 8.38197 85.3157 8.06939C85.5241 7.7568 85.8204 7.51317 86.1669 7.3693C86.5134 7.22543 86.8948 7.18779 87.2627 7.26113C87.6305 7.33448 87.9685 7.51551 88.2338 7.78135C88.499 8.04717 88.6796 8.38586 88.7528 8.75459C88.8259 9.1233 88.7884 9.50549 88.6449 9.85281C88.5013 10.2001 88.2582 10.497 87.9463 10.7059C87.6345 10.9147 87.2678 11.0262 86.8926 11.0262C86.3913 11.0212 85.9117 10.8194 85.5571 10.4639C85.2026 10.1086 85.0011 9.62798 84.9961 9.12541ZM85.3154 11.9553H88.4774V22.5153H85.3111L85.3154 11.9553Z" fill="#0C0D1A"/>
<path d="M102.125 17.2356C102.161 17.9336 102.06 18.6318 101.826 19.2903C101.593 19.9487 101.231 20.5544 100.763 21.0724C100.295 21.5904 99.7296 22.0107 99.099 22.3089C98.4683 22.6071 97.7851 22.7774 97.0886 22.81C96.5028 22.842 95.9173 22.7431 95.3744 22.5202C94.8315 22.2973 94.3451 21.9562 93.95 21.5215V26.7386H90.7891V11.9556H93.95V12.9476C94.3452 12.5133 94.8319 12.1724 95.3746 11.9498C95.9175 11.7271 96.5029 11.6282 97.0886 11.6602C97.7853 11.6927 98.4686 11.863 99.0994 12.1612C99.7302 12.4594 100.296 12.8797 100.764 13.3979C101.232 13.9161 101.593 14.5219 101.827 15.1806C102.06 15.8392 102.162 16.5376 102.125 17.2356ZM98.9638 17.2356C98.9515 16.7415 98.794 16.2619 98.511 15.8569C98.228 15.452 97.8322 15.1396 97.3731 14.9592C96.9138 14.7786 96.4117 14.7377 95.9295 14.8418C95.4472 14.9458 95.0064 15.1901 94.662 15.544C94.3176 15.898 94.0851 16.3458 93.9934 16.8317C93.9018 17.3175 93.9551 17.8194 94.1468 18.275C94.3383 18.7306 94.6599 19.1193 95.0709 19.3927C95.4819 19.6659 95.9641 19.8118 96.4574 19.8116C96.7961 19.8268 97.1341 19.7699 97.4494 19.6449C97.7645 19.52 98.0498 19.3296 98.2864 19.0864C98.5231 18.8431 98.7058 18.5526 98.8225 18.2336C98.9393 17.9147 98.9875 17.5745 98.9638 17.2356Z" fill="#0C0D1A"/>
<path d="M111.881 19.3469C111.881 21.7757 109.775 22.8104 107.499 22.8104C106.58 22.8938 105.657 22.699 104.849 22.2509C104.041 21.8029 103.386 21.1224 102.969 20.2973L105.707 18.7346C105.818 19.116 106.056 19.4478 106.381 19.6745C106.707 19.9013 107.1 20.0093 107.495 19.9805C108.253 19.9805 108.633 19.748 108.633 19.3266C108.633 18.164 103.449 18.7773 103.449 15.124C103.449 12.821 105.388 11.6605 107.579 11.6605C108.403 11.6344 109.218 11.8302 109.941 12.2276C110.664 12.625 111.267 13.2093 111.687 13.9197L108.99 15.3768C108.872 15.1002 108.675 14.8646 108.424 14.6993C108.173 14.5341 107.879 14.4466 107.579 14.4477C107.031 14.4477 106.694 14.661 106.694 15.0386C106.698 16.2429 111.881 15.4397 111.881 19.3469Z" fill="#0C0D1A"/>
<path d="M123.427 11.9551V22.5151H120.266V21.522C119.901 21.9602 119.438 22.3055 118.915 22.5295C118.391 22.7535 117.823 22.8498 117.254 22.8105C115.126 22.8105 113.316 21.2905 113.316 18.4372V11.9551H116.477V17.9732C116.451 18.2247 116.479 18.479 116.561 18.7183C116.642 18.9576 116.775 19.1763 116.95 19.359C117.124 19.5417 117.336 19.6841 117.571 19.7764C117.806 19.8687 118.058 19.9086 118.31 19.8932C119.469 19.8932 120.269 19.218 120.269 17.7183V11.9583L123.427 11.9551Z" fill="#0C0D1A"/>
<path d="M141.55 16.0312V22.5144H138.389V16.3053C138.389 15.2493 137.883 14.5741 136.872 14.5741C135.818 14.5741 135.228 15.3133 135.228 16.5592V22.5144H132.068V16.3053C132.068 15.2493 131.562 14.5741 130.55 14.5741C129.497 14.5741 128.907 15.3133 128.907 16.5592V22.5144H125.746V11.9544H128.907V12.9251C129.235 12.4945 129.665 12.1529 130.158 11.9318C130.651 11.7106 131.192 11.6168 131.731 11.6589C132.271 11.6324 132.81 11.7468 133.294 11.991C133.777 12.235 134.189 12.6007 134.49 13.052C134.84 12.5798 135.304 12.2043 135.839 11.9607C136.373 11.7171 136.96 11.6133 137.546 11.6589C139.965 11.66 141.55 13.3912 141.55 16.0312Z" fill="#0C0D1A"/>
<path d="M144.225 11.8913C145.52 11.8913 146.57 10.8387 146.57 9.54039C146.57 8.242 145.52 7.18945 144.225 7.18945C142.929 7.18945 141.879 8.242 141.879 9.54039C141.879 10.8387 142.929 11.8913 144.225 11.8913Z" fill="#0C0D1A"/>
</svg>
