<svg width="43" height="32" viewBox="0 0 43 32" fill="none" xmlns="http://www.w3.org/2000/svg">
<g clip-path="url(#clip0_1_15853)">
<path d="M42.9983 1.17073C42.9983 1.48123 42.8724 1.77901 42.6484 1.99856C42.4244 2.21812 42.1206 2.34146 41.8038 2.34146C41.487 2.34146 41.1832 2.21812 40.9592 1.99856C40.7352 1.77901 40.6094 1.48123 40.6094 1.17073C40.6094 0.860234 40.7352 0.562454 40.9592 0.342899C41.1832 0.123345 41.487 0 41.8038 0C42.1206 0 42.4244 0.123345 42.6484 0.342899C42.8724 0.562454 42.9983 0.860234 42.9983 1.17073Z" fill="#0C0D1A"/>
<path fill-rule="evenodd" clip-rule="evenodd" d="M10.9491 31.84C4.902 31.84 0 27.0353 0 21.1083V0.78125H3.98148V21.1083C3.98148 22.9195 4.71557 24.6566 6.02224 25.9373C7.32892 27.218 9.10115 27.9375 10.9491 27.9375C14.8454 27.9375 17.9167 24.9943 17.9167 21.2691H21.8981V27.1227C21.8981 27.3815 22.003 27.6296 22.1897 27.8126C22.3764 27.9955 22.6295 28.0983 22.8935 28.0983C23.1575 28.0983 23.4107 27.9955 23.5974 27.8126C23.784 27.6296 23.8889 27.3815 23.8889 27.1227V20.1959C23.1657 20.3406 22.4188 20.3258 21.7021 20.1526C20.9855 19.9794 20.3172 19.6522 19.7455 19.1946C19.1738 18.737 18.7131 18.1605 18.3968 17.5069C18.0805 16.8532 17.9165 16.1388 17.9167 15.4154V5.6593C17.9167 4.36556 18.441 3.12481 19.3744 2.21C20.3077 1.29519 21.5736 0.78125 22.8935 0.78125C24.2135 0.78125 25.4793 1.29519 26.4127 2.21C27.346 3.12481 27.8704 4.36556 27.8704 5.6593V27.1227C27.8704 27.3815 27.9752 27.6296 28.1619 27.8126C28.3486 27.9955 28.6018 28.0983 28.8657 28.0983C29.1297 28.0983 29.3829 27.9955 29.5696 27.8126C29.7562 27.6296 29.8611 27.3815 29.8611 27.1227V5.6593C29.8611 4.36556 30.3855 3.12481 31.3188 2.21C32.2521 1.29519 33.518 0.78125 34.838 0.78125C36.1579 0.78125 37.4238 1.29519 38.3571 2.21C39.2905 3.12481 39.8148 4.36556 39.8148 5.6593V27.1227C39.8148 28.0286 39.5574 28.9166 39.0715 29.6873C38.5856 30.4579 37.8904 31.0806 37.0637 31.4858C36.237 31.8909 35.3115 32.0624 34.391 31.9811C33.4705 31.8997 32.5913 31.5687 31.8519 31.0252C30.9911 31.6599 29.9428 32.0023 28.8657 32.0008C27.7886 32.0023 26.7403 31.6599 25.8796 31.0252C25.2806 31.4654 24.588 31.7676 23.8534 31.9091C23.1187 32.0507 22.361 32.028 21.6365 31.8427C20.9121 31.6574 20.2396 31.3143 19.6691 30.839C19.0987 30.3637 18.645 29.7684 18.3419 29.0973C16.3862 30.8121 13.7847 31.84 10.9491 31.84ZM34.838 28.0983C34.2885 28.0983 33.8426 27.6613 33.8426 27.1227V5.6593C33.8426 5.40055 33.9475 5.1524 34.1341 4.96944C34.3208 4.78648 34.574 4.68369 34.838 4.68369C35.102 4.68369 35.3551 4.78648 35.5418 4.96944C35.7285 5.1524 35.8333 5.40055 35.8333 5.6593V27.1227C35.8333 27.6613 35.3874 28.0983 34.838 28.0983ZM23.8889 15.4154C23.8889 15.6741 23.784 15.9223 23.5974 16.1053C23.4107 16.2882 23.1575 16.391 22.8935 16.391C22.6295 16.391 22.3764 16.2882 22.1897 16.1053C22.003 15.9223 21.8981 15.6741 21.8981 15.4154V5.6593C21.8981 5.40055 22.003 5.1524 22.1897 4.96944C22.3764 4.78648 22.6295 4.68369 22.8935 4.68369C23.1575 4.68369 23.4107 4.78648 23.5974 4.96944C23.784 5.1524 23.8889 5.40055 23.8889 5.6593V15.4154Z" fill="#0C0D1A"/>
<path fill-rule="evenodd" clip-rule="evenodd" d="M5.97266 21.2691C5.97266 22.5628 6.497 23.8035 7.43034 24.7184C8.36368 25.6332 9.62957 26.1471 10.9495 26.1471C12.2695 26.1471 13.5353 25.6332 14.4687 24.7184C15.402 23.8035 15.9264 22.5628 15.9264 21.2691V5.6593C15.9264 4.36556 15.402 3.12481 14.4687 2.21C13.5353 1.29519 12.2695 0.78125 10.9495 0.78125C9.62957 0.78125 8.36368 1.29519 7.43034 2.21C6.497 3.12481 5.97266 4.36556 5.97266 5.6593V21.2691ZM10.9495 22.2447C10.4001 22.2447 9.95414 21.8076 9.95414 21.2691V5.6593C9.95414 5.40055 10.059 5.1524 10.2457 4.96944C10.4323 4.78648 10.6855 4.68369 10.9495 4.68369C11.2135 4.68369 11.4667 4.78648 11.6533 4.96944C11.84 5.1524 11.9449 5.40055 11.9449 5.6593V21.2691C11.9449 21.8076 11.499 22.2447 10.9495 22.2447Z" fill="#0C0D1A"/>
</g>
<defs>
<clipPath id="clip0_1_15853">
<rect width="43" height="32" fill="white"/>
</clipPath>
</defs>
</svg>
