<svg width="162" height="48" viewBox="0 0 162 48" fill="none" xmlns="http://www.w3.org/2000/svg">
<g clip-path="url(#clip0_1_15819)">
<path d="M156.236 48H5.6748C2.5464 48 0 45.4464 0 42.3204V5.6712C0 2.544 2.5464 0 5.6748 0H156.236C159.364 0 162 2.544 162 5.6712V42.3204C162 45.4464 159.364 48 156.236 48Z" fill="#A6A6A6"/>
<path d="M160.839 42.3216C160.839 44.8608 158.782 46.9176 156.238 46.9176H5.67516C3.13236 46.9176 1.06836 44.8608 1.06836 42.3216V5.66999C1.06836 3.13199 3.13236 1.06799 5.67516 1.06799H156.237C158.782 1.06799 160.838 3.13199 160.838 5.66999L160.839 42.3216Z" fill="#0C0D1A"/>
<path d="M36.1539 23.7408C36.1191 19.8732 39.3207 17.9916 39.4671 17.904C37.6539 15.2604 34.8435 14.8992 33.8559 14.8704C31.4955 14.622 29.2059 16.2828 28.0035 16.2828C26.7771 16.2828 24.9255 14.8944 22.9299 14.9352C20.3619 14.9748 17.9595 16.4616 16.6419 18.7704C13.9227 23.478 15.9507 30.396 18.5559 34.2012C19.8591 36.0648 21.3819 38.1456 23.3751 38.0724C25.3251 37.992 26.0535 36.8292 28.4067 36.8292C30.7383 36.8292 31.4223 38.0724 33.4551 38.0256C35.5479 37.992 36.8655 36.1536 38.1231 34.2732C39.6291 32.1372 40.2339 30.0336 40.2579 29.9256C40.2087 29.9088 36.1935 28.3764 36.1539 23.7408Z" fill="white"/>
<path d="M32.3135 12.3672C33.3623 11.0556 34.0799 9.27119 33.8807 7.46039C32.3627 7.52759 30.4643 8.51039 29.3711 9.79319C28.4039 10.9236 27.5399 12.7764 27.7631 14.5188C29.4683 14.646 31.2191 13.6584 32.3135 12.3672Z" fill="white"/>
<path d="M64.3736 37.8048H61.6484L60.1556 33.114H54.9668L53.5448 37.8048H50.8916L56.0324 21.8352H59.2076L64.3736 37.8048ZM59.7056 31.146L58.3556 26.976C58.2128 26.55 57.9452 25.5468 57.5504 23.9676H57.5024C57.3452 24.6468 57.092 25.65 56.744 26.976L55.418 31.146H59.7056Z" fill="white"/>
<path d="M77.5941 31.9056C77.5941 33.864 77.0649 35.412 76.0065 36.5484C75.0585 37.56 73.8813 38.0652 72.4761 38.0652C70.9593 38.0652 69.8697 37.5204 69.2061 36.4308H69.1581V42.4968H66.5997V30.0804C66.5997 28.8492 66.5673 27.5856 66.5049 26.2896H68.7549L68.8977 28.1148H68.9457C69.7989 26.7396 71.0937 26.0532 72.8313 26.0532C74.1897 26.0532 75.3237 26.5896 76.2309 27.6636C77.1405 28.7388 77.5941 30.1524 77.5941 31.9056ZM74.9877 31.9992C74.9877 30.8784 74.7357 29.9544 74.2293 29.2272C73.6761 28.4688 72.9333 28.0896 72.0021 28.0896C71.3709 28.0896 70.7973 28.3008 70.2849 28.7172C69.7713 29.1372 69.4353 29.6856 69.2781 30.3648C69.1989 30.6816 69.1593 30.9408 69.1593 31.1448V33.0648C69.1593 33.9024 69.4161 34.6092 69.9297 35.1864C70.4433 35.7636 71.1105 36.0516 71.9313 36.0516C72.8949 36.0516 73.6449 35.6796 74.1813 34.938C74.7189 34.1952 74.9877 33.216 74.9877 31.9992Z" fill="white"/>
<path d="M90.838 31.9056C90.838 33.864 90.3088 35.412 89.2492 36.5484C88.3024 37.56 87.1252 38.0652 85.72 38.0652C84.2032 38.0652 83.1136 37.5204 82.4512 36.4308H82.4032V42.4968H79.8448V30.0804C79.8448 28.8492 79.8124 27.5856 79.75 26.2896H82L82.1428 28.1148H82.1908C83.0428 26.7396 84.3376 26.0532 86.0764 26.0532C87.4336 26.0532 88.5676 26.5896 89.4772 27.6636C90.3832 28.7388 90.838 30.1524 90.838 31.9056ZM88.2316 31.9992C88.2316 30.8784 87.9784 29.9544 87.472 29.2272C86.9188 28.4688 86.1784 28.0896 85.246 28.0896C84.6136 28.0896 84.0412 28.3008 83.5276 28.7172C83.014 29.1372 82.6792 29.6856 82.522 30.3648C82.444 30.6816 82.4032 30.9408 82.4032 31.1448V33.0648C82.4032 33.9024 82.66 34.6092 83.1712 35.1864C83.6848 35.7624 84.352 36.0516 85.1752 36.0516C86.1388 36.0516 86.8888 35.6796 87.4252 34.938C87.9628 34.1952 88.2316 33.216 88.2316 31.9992Z" fill="white"/>
<path d="M105.646 33.3264C105.646 34.6848 105.175 35.79 104.228 36.6432C103.188 37.5756 101.739 38.0412 99.8781 38.0412C98.1597 38.0412 96.7821 37.71 95.7393 37.0464L96.3321 34.914C97.4553 35.5932 98.6877 35.934 100.03 35.934C100.994 35.934 101.744 35.7156 102.283 35.2812C102.819 34.8468 103.087 34.2636 103.087 33.5364C103.087 32.8884 102.866 32.3424 102.423 31.8996C101.983 31.4568 101.247 31.0452 100.22 30.6648C97.4241 29.622 96.0273 28.0944 96.0273 26.0856C96.0273 24.7728 96.5169 23.6964 97.4973 22.8588C98.4741 22.02 99.7773 21.6012 101.407 21.6012C102.86 21.6012 104.067 21.8544 105.031 22.3596L104.391 24.4452C103.491 23.9556 102.474 23.7108 101.335 23.7108C100.435 23.7108 99.7317 23.9328 99.2277 24.3744C98.8017 24.7692 98.5881 25.2504 98.5881 25.8204C98.5881 26.4516 98.8317 26.9736 99.3213 27.384C99.7473 27.7632 100.521 28.1736 101.644 28.6164C103.018 29.1696 104.028 29.8164 104.677 30.558C105.324 31.2972 105.646 32.2224 105.646 33.3264Z" fill="white"/>
<path d="M114.106 28.2096H111.286V33.8004C111.286 35.2224 111.782 35.9328 112.778 35.9328C113.236 35.9328 113.615 35.8932 113.915 35.814L113.986 37.7568C113.482 37.9452 112.818 38.04 111.996 38.04C110.986 38.04 110.196 37.7316 109.626 37.116C109.058 36.4992 108.773 35.4648 108.773 34.0116V28.2072H107.093V26.2872H108.773V24.1788L111.286 23.4204V26.2872H114.106V28.2096Z" fill="white"/>
<path d="M126.829 31.9524C126.829 33.7224 126.322 35.1756 125.312 36.312C124.252 37.482 122.846 38.0652 121.093 38.0652C119.403 38.0652 118.058 37.5048 117.055 36.384C116.051 35.2632 115.55 33.8484 115.55 32.1432C115.55 30.3588 116.066 28.8972 117.101 27.7608C118.135 26.6232 119.529 26.0544 121.282 26.0544C122.972 26.0544 124.331 26.6148 125.357 27.7368C126.339 28.8252 126.829 30.2304 126.829 31.9524ZM124.174 32.0352C124.174 30.9732 123.947 30.0624 123.488 29.3028C122.951 28.3836 122.185 27.9252 121.191 27.9252C120.163 27.9252 119.381 28.3848 118.845 29.3028C118.385 30.0636 118.159 30.9888 118.159 32.0832C118.159 33.1452 118.385 34.056 118.845 34.8144C119.398 35.7336 120.171 36.192 121.168 36.192C122.145 36.192 122.912 35.724 123.465 34.7904C123.937 34.0164 124.174 33.096 124.174 32.0352Z" fill="white"/>
<path d="M135.145 28.5396C134.892 28.4928 134.622 28.4688 134.339 28.4688C133.439 28.4688 132.743 28.8084 132.253 29.4888C131.827 30.0888 131.614 30.8472 131.614 31.7628V37.8048H129.056L129.08 29.916C129.08 28.5888 129.048 27.3804 128.984 26.2908H131.213L131.306 28.494H131.377C131.647 27.7368 132.073 27.1272 132.656 26.67C133.226 26.2584 133.842 26.0532 134.506 26.0532C134.742 26.0532 134.956 26.07 135.145 26.1V28.5396Z" fill="white"/>
<path d="M146.587 31.5024C146.587 31.9608 146.557 32.3472 146.494 32.6628H138.818C138.848 33.8004 139.219 34.6704 139.932 35.2704C140.579 35.8068 141.415 36.0756 142.442 36.0756C143.579 36.0756 144.616 35.8944 145.548 35.5308L145.949 37.3068C144.859 37.782 143.573 38.0184 142.088 38.0184C140.303 38.0184 138.901 37.4928 137.881 36.4428C136.864 35.3928 136.354 33.9828 136.354 32.214C136.354 30.4776 136.828 29.0316 137.777 27.8784C138.77 26.6472 140.113 26.0316 141.803 26.0316C143.462 26.0316 144.719 26.6472 145.572 27.8784C146.248 28.8564 146.587 30.066 146.587 31.5024ZM144.148 30.8388C144.164 30.0804 143.998 29.4252 143.651 28.872C143.208 28.1604 142.528 27.8052 141.612 27.8052C140.776 27.8052 140.095 28.152 139.576 28.848C139.15 29.4012 138.896 30.0648 138.818 30.8376L144.148 30.8388Z" fill="white"/>
<path d="M58.8599 12.0108C58.8599 13.4232 58.4363 14.4864 57.5903 15.2004C56.8067 15.8592 55.6931 16.1892 54.2507 16.1892C53.5355 16.1892 52.9235 16.158 52.4111 16.0956V8.37838C53.0795 8.27038 53.7995 8.21518 54.5771 8.21518C55.9511 8.21518 56.9867 8.51398 57.6851 9.11158C58.4675 9.78718 58.8599 10.7532 58.8599 12.0108ZM57.5339 12.0456C57.5339 11.13 57.2915 10.428 56.8067 9.93838C56.3219 9.44998 55.6139 9.20518 54.6815 9.20518C54.2855 9.20518 53.9483 9.23158 53.6687 9.28678V15.1536C53.8235 15.1776 54.1067 15.1884 54.5183 15.1884C55.4807 15.1884 56.2235 14.9208 56.7467 14.3856C57.2699 13.8504 57.5339 13.0704 57.5339 12.0456Z" fill="white"/>
<path d="M65.891 13.2444C65.891 14.1144 65.6426 14.8272 65.1458 15.3864C64.625 15.9612 63.935 16.248 63.0734 16.248C62.243 16.248 61.5818 15.9732 61.0886 15.4212C60.5966 14.8704 60.3506 14.1756 60.3506 13.338C60.3506 12.462 60.6038 11.7432 61.1126 11.1852C61.6214 10.6272 62.3054 10.3476 63.167 10.3476C63.9974 10.3476 64.6646 10.6224 65.1698 11.1732C65.6498 11.7084 65.891 12.3996 65.891 13.2444ZM64.5866 13.2852C64.5866 12.7632 64.4738 12.3156 64.2494 11.9424C63.9854 11.4912 63.6098 11.2656 63.1214 11.2656C62.6162 11.2656 62.2322 11.4912 61.9682 11.9424C61.7426 12.3156 61.631 12.7704 61.631 13.308C61.631 13.83 61.7438 14.2776 61.9682 14.6508C62.2406 15.102 62.6198 15.3276 63.1094 15.3276C63.5894 15.3276 63.9662 15.0984 64.2374 14.6388C64.4702 14.2584 64.5866 13.8072 64.5866 13.2852Z" fill="white"/>
<path d="M75.3181 10.4628L73.5481 16.1196H72.3961L71.6629 13.6632C71.4769 13.05 71.3257 12.4404 71.2081 11.8356H71.1853C71.0761 12.4572 70.9249 13.0656 70.7305 13.6632L69.9517 16.1196H68.7865L67.1221 10.4628H68.4145L69.0541 13.152C69.2089 13.788 69.3361 14.394 69.4381 14.9676H69.4609C69.5545 14.4948 69.7093 13.8924 69.9277 13.164L70.7305 10.464H71.7553L72.5245 13.1064C72.7105 13.7508 72.8617 14.3712 72.9781 14.9688H73.0129C73.0981 14.3868 73.2265 13.7664 73.3969 13.1064L74.0833 10.464H75.3181V10.4628Z" fill="white"/>
<path d="M81.8373 16.1196H80.5797V12.8796C80.5797 11.8812 80.2005 11.382 79.4397 11.382C79.0665 11.382 78.7653 11.5188 78.5313 11.7936C78.2997 12.0684 78.1821 12.3924 78.1821 12.7632V16.1184H76.9245V12.0792C76.9245 11.5824 76.9089 11.0436 76.8789 10.4604H77.9841L78.0429 11.3448H78.0777C78.2241 11.07 78.4425 10.8432 78.7293 10.662C79.0701 10.4508 79.4517 10.344 79.8693 10.344C80.3973 10.344 80.8365 10.5144 81.1857 10.8564C81.6201 11.2752 81.8373 11.9004 81.8373 12.7308V16.1196Z" fill="white"/>
<path d="M85.3052 16.1196H84.0488V7.86719H85.3052V16.1196Z" fill="white"/>
<path d="M92.7094 13.2444C92.7094 14.1144 92.4609 14.8272 91.9641 15.3864C91.4433 15.9612 90.7522 16.248 89.8918 16.248C89.0602 16.248 88.3989 15.9732 87.9069 15.4212C87.4149 14.8704 87.1689 14.1756 87.1689 13.338C87.1689 12.462 87.4221 11.7432 87.9309 11.1852C88.4397 10.6272 89.1237 10.3476 89.9841 10.3476C90.8157 10.3476 91.4817 10.6224 91.9881 11.1732C92.4681 11.7084 92.7094 12.3996 92.7094 13.2444ZM91.4037 13.2852C91.4037 12.7632 91.2909 12.3156 91.0665 11.9424C90.8037 11.4912 90.4269 11.2656 89.9397 11.2656C89.4333 11.2656 89.0493 11.4912 88.7865 11.9424C88.5609 12.3156 88.4493 12.7704 88.4493 13.308C88.4493 13.83 88.5621 14.2776 88.7865 14.6508C89.0589 15.102 89.4381 15.3276 89.9277 15.3276C90.4077 15.3276 90.7833 15.0984 91.0545 14.6388C91.2885 14.2584 91.4037 13.8072 91.4037 13.2852Z" fill="white"/>
<path d="M98.7963 16.1196H97.6671L97.5735 15.468H97.5387C97.1523 15.9876 96.6015 16.248 95.8863 16.248C95.3523 16.248 94.9203 16.0764 94.5951 15.7356C94.2999 15.426 94.1523 15.0408 94.1523 14.5836C94.1523 13.8924 94.4403 13.3656 95.0199 13.0008C95.5983 12.636 96.4119 12.4572 97.4595 12.4656V12.36C97.4595 11.6148 97.0683 11.2428 96.2847 11.2428C95.7267 11.2428 95.2347 11.3832 94.8099 11.6616L94.5543 10.836C95.0799 10.5108 95.7291 10.3476 96.4947 10.3476C97.9731 10.3476 98.7147 11.1276 98.7147 12.6876V14.7708C98.7147 15.336 98.7423 15.786 98.7963 16.1196ZM97.4907 14.1756V13.3032C96.1035 13.2792 95.4099 13.6596 95.4099 14.4432C95.4099 14.7384 95.4891 14.9592 95.6511 15.1068C95.8131 15.2544 96.0195 15.3276 96.2655 15.3276C96.5415 15.3276 96.7995 15.24 97.0347 15.066C97.2711 14.8908 97.4163 14.6688 97.4703 14.3964C97.4835 14.3352 97.4907 14.2608 97.4907 14.1756Z" fill="white"/>
<path d="M105.942 16.1196H104.826L104.767 15.2112H104.732C104.376 15.9024 103.769 16.248 102.916 16.248C102.234 16.248 101.666 15.9804 101.216 15.4452C100.766 14.91 100.542 14.2152 100.542 13.362C100.542 12.4464 100.786 11.7048 101.275 11.1384C101.749 10.6104 102.33 10.3464 103.021 10.3464C103.781 10.3464 104.312 10.602 104.615 11.1144H104.639V7.86719H105.898V14.5956C105.898 15.1464 105.912 15.654 105.942 16.1196ZM104.639 13.734V12.7908C104.639 12.6276 104.627 12.4956 104.604 12.3948C104.533 12.0924 104.381 11.838 104.149 11.6328C103.915 11.4276 103.633 11.3244 103.308 11.3244C102.839 11.3244 102.472 11.5104 102.202 11.8836C101.934 12.2568 101.798 12.7332 101.798 13.3152C101.798 13.8744 101.927 14.328 102.185 14.6772C102.457 15.0492 102.824 15.2352 103.284 15.2352C103.697 15.2352 104.027 15.0804 104.278 14.7696C104.52 14.4828 104.639 14.1372 104.639 13.734Z" fill="white"/>
<path d="M116.698 13.2444C116.698 14.1144 116.449 14.8272 115.952 15.3864C115.432 15.9612 114.743 16.248 113.88 16.248C113.051 16.248 112.39 15.9732 111.895 15.4212C111.403 14.8704 111.157 14.1756 111.157 13.338C111.157 12.462 111.41 11.7432 111.919 11.1852C112.428 10.6272 113.112 10.3476 113.975 10.3476C114.804 10.3476 115.472 10.6224 115.976 11.1732C116.456 11.7084 116.698 12.3996 116.698 13.2444ZM115.394 13.2852C115.394 12.7632 115.282 12.3156 115.057 11.9424C114.792 11.4912 114.418 11.2656 113.928 11.2656C113.424 11.2656 113.04 11.4912 112.775 11.9424C112.549 12.3156 112.438 12.7704 112.438 13.308C112.438 13.83 112.55 14.2776 112.775 14.6508C113.047 15.102 113.426 15.3276 113.916 15.3276C114.396 15.3276 114.774 15.0984 115.045 14.6388C115.277 14.2584 115.394 13.8072 115.394 13.2852Z" fill="white"/>
<path d="M123.459 16.1196H122.203V12.8796C122.203 11.8812 121.824 11.382 121.062 11.382C120.688 11.382 120.387 11.5188 120.154 11.7936C119.922 12.0684 119.805 12.3924 119.805 12.7632V16.1184H118.546V12.0792C118.546 11.5824 118.532 11.0436 118.502 10.4604H119.606L119.665 11.3448H119.7C119.847 11.07 120.066 10.8432 120.351 10.662C120.693 10.4508 121.074 10.344 121.492 10.344C122.019 10.344 122.458 10.5144 122.808 10.8564C123.243 11.2752 123.459 11.9004 123.459 12.7308V16.1196Z" fill="white"/>
<path d="M131.923 11.4048H130.538V14.1528C130.538 14.8512 130.784 15.2004 131.271 15.2004C131.497 15.2004 131.684 15.1812 131.832 15.1416L131.864 16.0956C131.616 16.1892 131.289 16.236 130.887 16.236C130.39 16.236 130.004 16.0848 129.724 15.7824C129.444 15.48 129.304 14.9712 129.304 14.2572V11.4048H128.478V10.4628H129.304V9.42599L130.537 9.05399V10.4616H131.922L131.923 11.4048Z" fill="white"/>
<path d="M138.581 16.1196H137.322V12.9036C137.322 11.8896 136.943 11.382 136.183 11.382C135.6 11.382 135.202 11.676 134.983 12.264C134.946 12.3876 134.924 12.5388 134.924 12.7164V16.1184H133.668V7.86719H134.924V11.2764H134.948C135.344 10.656 135.912 10.3464 136.648 10.3464C137.168 10.3464 137.599 10.5168 137.941 10.8588C138.367 11.2848 138.581 11.9184 138.581 12.756V16.1196Z" fill="white"/>
<path d="M145.448 13.0236C145.448 13.2492 145.431 13.4388 145.401 13.5936H141.63C141.647 14.1528 141.827 14.5788 142.176 14.874C142.495 15.138 142.907 15.27 143.411 15.27C143.969 15.27 144.477 15.1812 144.936 15.0024L145.133 15.876C144.596 16.1088 143.965 16.2252 143.234 16.2252C142.358 16.2252 141.668 15.9672 141.169 15.4512C140.667 14.9352 140.419 14.2428 140.419 13.374C140.419 12.5208 140.651 11.8104 141.117 11.244C141.605 10.6392 142.263 10.3368 143.095 10.3368C143.909 10.3368 144.527 10.6392 144.944 11.244C145.281 11.724 145.448 12.318 145.448 13.0236ZM144.248 12.6984C144.258 12.3252 144.175 12.0036 144.005 11.7324C143.786 11.3832 143.454 11.208 143.004 11.208C142.593 11.208 142.259 11.3784 142.003 11.7204C141.794 11.9928 141.671 12.318 141.63 12.6984H144.248Z" fill="white"/>
</g>
<defs>
<clipPath id="clip0_1_15819">
<rect width="162" height="48" fill="white"/>
</clipPath>
</defs>
</svg>
