<svg width="156" height="36" viewBox="0 0 156 36" fill="none" xmlns="http://www.w3.org/2000/svg">
<path fill-rule="evenodd" clip-rule="evenodd" d="M9.71079 23.7094C5.03527 31.6831 6.87855 34.1312 8.10738 35.2085C9.43955 36.3748 -2.44942 32.7849 0.460319 23.8914C1.167 21.7407 2.0997 19.6515 3.40328 17.6657C4.85906 15.444 5.98551 13.4753 5.21886 11.0176C5.21886 11.0176 14.391 15.7396 9.71079 23.7094Z" fill="#0C0D1A"/>
<path fill-rule="evenodd" clip-rule="evenodd" d="M11.1481 24.7925C4.83343 31.4713 2.10803 30.2087 0.811785 29.2286C-0.592786 28.1669 4.86893 39.3029 13.1844 34.1817C15.0668 33.0258 16.7473 31.4846 18.2883 29.6908C20.0151 27.6692 21.5754 26.0502 24.0541 26.2222C24.0541 26.2222 17.4637 18.112 11.1481 24.7925Z" fill="#F14F48"/>
<path fill-rule="evenodd" clip-rule="evenodd" d="M21.0862 11.8258C25.7617 3.8522 23.9184 1.40402 22.6896 0.326781C21.3573 -0.839515 33.2464 2.75032 30.3366 11.6439C29.63 13.7946 28.6973 15.8837 27.3937 17.8696C25.9378 20.0912 24.8115 22.06 25.5781 24.5178C25.5781 24.5178 16.406 19.7957 21.0862 11.8258Z" fill="#0C0D1A"/>
<path fill-rule="evenodd" clip-rule="evenodd" d="M19.6492 10.7428C25.9639 4.06413 28.6892 5.32665 29.9856 6.30669C31.39 7.36839 25.9284 -3.76752 17.6129 1.35366C15.7304 2.50952 14.05 4.05068 12.5089 5.84453C10.7821 7.8661 9.22188 9.48507 6.74316 9.3131C6.74316 9.3131 13.3336 17.4234 19.6492 10.7428Z" fill="#F14F48"/>
<path d="M46.8476 18.3598V16.8496C46.8476 12.6446 44.5674 8.82452 39.7405 8.82452C35.0913 8.82452 32.5742 12.5853 32.5742 16.82C32.5742 20.7881 34.3806 24.9931 40.6289 24.9636C42.7906 24.9339 44.7451 24.4897 46.0184 24.0751L45.9 20.3735C44.597 20.9361 42.8498 21.5876 41.3988 21.5876C39.4148 21.5876 37.6972 20.8473 37.5492 18.3598H46.8476ZM37.4307 15.5762C37.4307 13.4441 38.3191 12.0819 39.8293 12.0819C41.4284 12.0819 41.9911 13.0591 41.9911 15.132V15.5762H37.4307ZM46.6303 9.17988L52.2864 24.6081C52.2864 26.0591 51.398 27.0956 49.7693 27.0956C49.2362 27.0956 48.8513 26.9771 48.3479 26.8291L48.1998 30.6787C48.7624 30.8564 49.6804 31.1822 51.1611 31.1822C54.8627 31.1822 56.0768 28.9908 56.9652 26.3849L62.7397 9.17988H57.5574L55.0107 19.0113H54.9515L52.1975 9.17988H46.6303ZM76.7958 18.3598V16.8496C76.7958 12.6446 74.5156 8.82452 69.6887 8.82452C65.0395 8.82452 62.5224 12.5853 62.5224 16.82C62.5224 20.7881 64.3288 24.9931 70.5771 24.9636C72.7388 24.9339 74.6933 24.4897 75.9666 24.0751L75.8482 20.3735C74.5452 20.9361 72.7981 21.5876 71.347 21.5876C69.363 21.5876 67.6454 20.8473 67.4974 18.3598H76.7958ZM67.3789 15.5762C67.3789 13.4441 68.2673 12.0819 69.7776 12.0819C71.3766 12.0819 71.9393 13.0591 71.9393 15.132V15.5762H67.3789ZM81.435 24.6081H87.7425L92.6879 9.17988H87.476L84.8701 19.7516H84.8109L82.1457 9.17988H76.5785L81.435 24.6081ZM106.744 18.3598V16.8496C106.744 12.6446 104.464 8.82452 99.637 8.82452C94.9878 8.82452 92.4708 12.5853 92.4708 16.82C92.4708 20.7881 94.2771 24.9931 100.525 24.9636C102.687 24.9339 104.642 24.4897 105.915 24.0751L105.796 20.3735C104.494 20.9361 102.746 21.5876 101.295 21.5876C99.3113 21.5876 97.5938 20.8473 97.4457 18.3598H106.744ZM97.3273 15.5762C97.3273 13.4441 98.2156 12.0819 99.7259 12.0819C101.325 12.0819 101.888 13.0591 101.888 15.132V15.5762H97.3273ZM107.356 24.2528C108.215 24.5785 110.377 24.9635 112.064 24.9635C116.625 24.9635 118.668 23.0979 118.668 19.8997C118.668 17.2049 117.513 16.2869 115.588 15.5762L113.812 14.9248C112.538 14.4509 112.035 14.0956 112.035 13.5626C112.035 12.7334 112.894 12.4373 113.93 12.4373C115.292 12.4373 116.743 12.9407 117.72 13.3849L117.898 9.53523C116.773 9.15026 115.203 8.82452 113.604 8.82452C108.925 8.82452 107.178 11.1639 107.178 13.8883C107.178 15.8427 107.889 17.353 110.347 18.2414L111.976 18.8336C113.279 19.3074 113.693 19.6036 113.693 20.1366C113.693 20.8473 112.953 21.2323 111.502 21.2323C109.636 21.2323 108.304 20.5512 107.474 20.1366L107.356 24.2528ZM118.412 12.7926H121.047V20.4327C121.047 23.3052 123.061 24.9635 125.993 24.9635C127.532 24.9635 128.835 24.7562 129.517 24.6081L129.368 20.9954C129.132 21.1434 128.658 21.2323 128.125 21.2323C127.177 21.2323 126.378 20.6696 126.378 19.3667V12.7926H129.368V9.17988H126.378V4.26416L121.047 5.92247V9.17988H118.412V12.7926ZM135.267 16.9088C135.267 14.6582 135.563 12.4373 137.37 12.4373C139.176 12.4373 139.472 14.6582 139.472 16.9088C139.472 19.1594 139.176 21.3507 137.37 21.3507C135.563 21.3507 135.267 19.1594 135.267 16.9088ZM129.7 16.9088C129.7 21.1138 131.743 24.9635 137.37 24.9635C142.996 24.9635 145.04 21.1138 145.04 16.9088C145.04 12.7038 142.996 8.82452 137.37 8.82452C131.743 8.82452 129.7 12.7038 129.7 16.9088ZM146.129 24.6081H151.46V16.9384C151.46 14.8951 152.644 13.3849 154.362 13.3849C154.984 13.3849 155.724 13.4737 155.961 13.5626V8.91336C155.635 8.85414 155.457 8.82452 155.072 8.82452C152.526 8.82452 151.578 10.5421 151.134 11.7562H151.075C151.075 10.8974 151.045 9.80175 150.956 9.17988H145.952C146.04 9.89058 146.129 11.4601 146.129 13.6514V24.6081Z" fill="#0C0D1A"/>
</svg>
